<?xml version="1.0" encoding="UTF-8" standalone="no"?>
<svg
   xmlns:dc="http://purl.org/dc/elements/1.1/"
   xmlns:cc="http://creativecommons.org/ns#"
   xmlns:rdf="http://www.w3.org/1999/02/22-rdf-syntax-ns#"
   xmlns:svg="http://www.w3.org/2000/svg"
   xmlns="http://www.w3.org/2000/svg"
   xmlns:sodipodi="http://sodipodi.sourceforge.net/DTD/sodipodi-0.dtd"
   xmlns:inkscape="http://www.inkscape.org/namespaces/inkscape"
   width="69.21566mm"
   height="46.610844mm"
   viewBox="0 0 69.21566 46.610844"
   version="1.1"
   id="svg876"
   inkscape:version="1.0 (4035a4fb49, 2020-05-01)"
   sodipodi:docname="drawing.svg">
  <defs
     id="defs870" />
  <sodipodi:namedview
     id="base"
     pagecolor="#ffffff"
     bordercolor="#666666"
     borderopacity="1.0"
     inkscape:pageopacity="0.0"
     inkscape:pageshadow="2"
     inkscape:zoom="1.6257412"
     inkscape:cx="91.486574"
     inkscape:cy="128.58631"
     inkscape:document-units="mm"
     inkscape:current-layer="layer1"
     inkscape:document-rotation="0"
     showgrid="false"
     inkscape:window-width="1920"
     inkscape:window-height="1017"
     inkscape:window-x="-8"
     inkscape:window-y="-8"
     inkscape:window-maximized="1" />
  <metadata
     id="metadata873">
    <rdf:RDF>
      <cc:Work
         rdf:about="">
        <dc:format>image/svg+xml</dc:format>
        <dc:type
           rdf:resource="http://purl.org/dc/dcmitype/StillImage" />
        <dc:title></dc:title>
      </cc:Work>
    </rdf:RDF>
  </metadata>
  <g
     transform="translate(-47.966279,-41.545032)"
     inkscape:label="Layer 1"
     inkscape:groupmode="layer"
     id="layer1">
    <path
       d="m 75.284451,52.256463 6.548438,-4.493923 9.789583,4.14355 -2.711979,14.852798 -6.905625,1.797569 -5.066771,-3.016261 -1.653646,-13.283733"
       fill="#000000"
       fill-rule="evenodd"
       stroke="none"
       id="path3480"
       style="stroke:#000000;stroke-width:0.5;stroke-linecap:round;stroke-linejoin:bevel;stroke-miterlimit:3.5;stroke-dasharray:none" />
    <g
       style="font-size:10.5833px;line-height:0.8;font-family:'Ostrich Sans';-inkscape-font-specification:'Ostrich Sans';fill:#000000;stroke:#000000;stroke-width:1.065;stroke-linecap:square;stroke-miterlimit:4;stroke-dasharray:none"
       id="text3567-6"
       aria-label="UNDER
CONSTRUCTION">
      <path
         id="path1891"
         style="font-style:normal;font-variant:normal;font-weight:normal;font-stretch:normal;font-size:12.7px;font-family:JackCondensedPhat;-inkscape-font-specification:JackCondensedPhat;text-align:center;text-anchor:middle;fill:#000000;stroke:#000000;stroke-width:1.065;stroke-linecap:square;stroke-miterlimit:4;stroke-dasharray:none"
         d="m 72.536479,66.557834 h -8.024316 v 7.131348 q 0,3.993554 3.956348,3.993554 4.067968,0 4.067968,-3.993554 z" />
      <path
         id="path1893"
         style="font-style:normal;font-variant:normal;font-weight:normal;font-stretch:normal;font-size:12.7px;font-family:JackCondensedPhat;-inkscape-font-specification:JackCondensedPhat;text-align:center;text-anchor:middle;fill:#000000;stroke:#000000;stroke-width:1.065;stroke-linecap:square;stroke-miterlimit:4;stroke-dasharray:none"
         d="m 75.674272,75.289084 1.178223,2.220019 h 3.348633 V 66.557834 h -3.733106 v 2.071191 l -1.103808,-2.071191 h -3.423047 v 10.951269 h 3.733105 z" />
      <path
         id="path1895"
         style="font-style:normal;font-variant:normal;font-weight:normal;font-stretch:normal;font-size:12.7px;font-family:JackCondensedPhat;-inkscape-font-specification:JackCondensedPhat;text-align:center;text-anchor:middle;fill:#000000;stroke:#000000;stroke-width:1.065;stroke-linecap:square;stroke-miterlimit:4;stroke-dasharray:none"
         d="m 79.345366,77.509103 h 3.708301 q 2.468066,0 3.75791,-1.773535 1.041797,-1.463476 1.041797,-3.844726 0,-2.43086 -1.252637,-3.832324 -1.364257,-1.500684 -3.819921,-1.500684 h -3.43545 z" />
      <path
         id="path1897"
         style="font-style:normal;font-variant:normal;font-weight:normal;font-stretch:normal;font-size:12.7px;font-family:JackCondensedPhat;-inkscape-font-specification:JackCondensedPhat;text-align:center;text-anchor:middle;fill:#000000;stroke:#000000;stroke-width:1.065;stroke-linecap:square;stroke-miterlimit:4;stroke-dasharray:none"
         d="m 93.124371,73.775998 v -3.559473 h 1.116211 v -3.658691 h -7.602637 v 10.951269 h 7.602637 v -3.733105 z" />
      <path
         id="path1899"
         style="font-style:normal;font-variant:normal;font-weight:normal;font-stretch:normal;font-size:12.7px;font-family:JackCondensedPhat;-inkscape-font-specification:JackCondensedPhat;text-align:center;text-anchor:middle;fill:#000000;stroke:#000000;stroke-width:1.065;stroke-linecap:square;stroke-miterlimit:4;stroke-dasharray:none"
         d="m 97.303959,76.727756 0.235645,0.781347 h 4.303616 l -1.63711,-4.787304 q 0.38447,-0.260449 0.84336,-0.954981 0.45888,-0.694531 0.40927,-1.686718 0,-1.773536 -1.27744,-2.728516 -1.054196,-0.79375 -2.703708,-0.79375 h -4.353223 v 10.951269 h 4.17959 z" />
      <path
         id="path1901"
         style="font-style:normal;font-variant:normal;font-weight:normal;font-stretch:normal;font-family:JackCondensedPhat;-inkscape-font-specification:JackCondensedPhat;text-align:center;text-anchor:middle;fill:#000000;stroke:#000000;stroke-width:1.065;stroke-linecap:square;stroke-miterlimit:4;stroke-dasharray:none"
         d="m 55.650775,82.579768 q 0,-2.377109 -0.909503,-3.379628 -0.899167,-0.992185 -2.521802,-0.992185 -1.984368,0 -2.986888,1.622635 -0.733803,1.209225 -0.733803,3.090241 0,1.922357 0.713133,3.110911 0.971513,1.591629 3.007558,1.591629 1.591629,0 2.532137,-1.02319 0.899168,-0.971514 0.899168,-3.255605 l -3.203929,-0.289387 q -0.06201,1.374589 -0.134358,1.570959 0,0.02067 -0.01034,0.02067 -0.02067,0 -0.05168,-0.113688 -0.113688,-0.392739 -0.113688,-1.601964 0,-1.126542 0.124023,-1.570958 0.05168,-0.165364 0,-0.165364 0.02067,0 0.02067,1.384924 h 3.369293 z" />
      <path
         id="path1903"
         style="font-style:normal;font-variant:normal;font-weight:normal;font-stretch:normal;font-family:JackCondensedPhat;-inkscape-font-specification:JackCondensedPhat;text-align:center;text-anchor:middle;fill:#000000;stroke:#000000;stroke-width:1.065;stroke-linecap:square;stroke-miterlimit:4;stroke-dasharray:none"
         d="m 54.42088,82.920831 q 0,1.870681 0.733803,3.090241 1.002519,1.612299 2.986888,1.612299 1.994704,0 2.986888,-1.612299 0.744138,-1.21956 0.744138,-3.090241 0,-1.881016 -0.744138,-3.090241 -0.992184,-1.622635 -2.986888,-1.622635 -1.984369,0 -2.986888,1.622635 -0.733803,1.209225 -0.733803,3.090241 z" />
      <path
         id="path1905"
         style="font-style:normal;font-variant:normal;font-weight:normal;font-stretch:normal;font-family:JackCondensedPhat;-inkscape-font-specification:JackCondensedPhat;text-align:center;text-anchor:middle;fill:#000000;stroke:#000000;stroke-width:1.065;stroke-linecap:square;stroke-miterlimit:4;stroke-dasharray:none"
         d="m 63.991324,85.628667 0.981849,1.850011 h 2.790519 V 78.352649 H 64.65278 v 1.725987 l -0.919837,-1.725987 h -2.85253 v 9.126029 h 3.110911 z" />
      <path
         id="path1907"
         style="font-style:normal;font-variant:normal;font-weight:normal;font-stretch:normal;font-family:JackCondensedPhat;-inkscape-font-specification:JackCondensedPhat;text-align:center;text-anchor:middle;fill:#000000;stroke:#000000;stroke-width:1.065;stroke-linecap:square;stroke-miterlimit:4;stroke-dasharray:none"
         d="m 72.083828,81.773618 1.591629,-0.661456 q -0.60978,-1.756994 -1.570959,-2.366774 -0.868161,-0.537433 -1.974033,-0.537433 -1.198889,0 -2.160068,0.78548 -1.064531,0.868161 -1.064531,2.149732 0,1.643306 1.198889,2.521802 0.04134,0.03101 0.103353,0.07235 l -1.82934,0.733803 q 0.671791,1.870681 1.601964,2.511467 0.940508,0.640785 2.149733,0.640785 1.457271,0 2.470126,-0.888832 1.074866,-0.971513 1.074866,-2.449455 0,-1.426265 -1.209225,-2.284091 -0.134358,-0.103352 -0.382404,-0.227375 z" />
      <path
         id="path1909"
         style="font-style:normal;font-variant:normal;font-weight:normal;font-stretch:normal;font-family:JackCondensedPhat;-inkscape-font-specification:JackCondensedPhat;text-align:center;text-anchor:middle;fill:#000000;stroke:#000000;stroke-width:1.065;stroke-linecap:square;stroke-miterlimit:4;stroke-dasharray:none"
         d="m 71.959804,81.401549 h 1.705317 v 6.077129 h 3.493316 v -6.077129 h 1.705316 v -3.0489 h -6.903949 z" />
      <path
         id="path1911"
         style="font-style:normal;font-variant:normal;font-weight:normal;font-stretch:normal;font-family:JackCondensedPhat;-inkscape-font-specification:JackCondensedPhat;text-align:center;text-anchor:middle;fill:#000000;stroke:#000000;stroke-width:1.065;stroke-linecap:square;stroke-miterlimit:4;stroke-dasharray:none"
         d="m 81.251197,86.827557 0.19637,0.651121 H 85.0339 L 83.669647,83.48927 q 0.320392,-0.21704 0.702797,-0.795815 0.382404,-0.578774 0.341063,-1.405594 0,-1.477941 -1.064531,-2.273756 -0.878496,-0.661456 -2.253085,-0.661456 h -3.627674 v 9.126029 h 3.48298 z" />
      <path
         id="path1913"
         style="font-style:normal;font-variant:normal;font-weight:normal;font-stretch:normal;font-family:JackCondensedPhat;-inkscape-font-specification:JackCondensedPhat;text-align:center;text-anchor:middle;fill:#000000;stroke:#000000;stroke-width:1.065;stroke-linecap:square;stroke-miterlimit:4;stroke-dasharray:none"
         d="m 90.232534,78.352649 h -6.686909 v 5.942771 q 0,3.327951 3.296946,3.327951 3.389963,0 3.389963,-3.327951 z" />
      <path
         id="path1915"
         style="font-style:normal;font-variant:normal;font-weight:normal;font-stretch:normal;font-family:JackCondensedPhat;-inkscape-font-specification:JackCondensedPhat;text-align:center;text-anchor:middle;fill:#000000;stroke:#000000;stroke-width:1.065;stroke-linecap:square;stroke-miterlimit:4;stroke-dasharray:none"
         d="m 96.475024,82.579768 q 0,-2.377109 -0.909502,-3.379628 -0.899168,-0.992185 -2.521802,-0.992185 -1.984369,0 -2.986889,1.622635 -0.733803,1.209225 -0.733803,3.090241 0,1.922357 0.713133,3.110911 0.971514,1.591629 3.007559,1.591629 1.591629,0 2.532137,-1.02319 0.899167,-0.971514 0.899167,-3.255605 l -3.203929,-0.289387 q -0.06201,1.374589 -0.134358,1.570959 0,0.02067 -0.01033,0.02067 -0.02067,0 -0.05168,-0.113688 -0.113687,-0.392739 -0.113687,-1.601964 0,-1.126542 0.124023,-1.570958 0.05168,-0.165364 0,-0.165364 0.02067,0 0.02067,1.384924 h 3.369293 z" />
      <path
         id="path1917"
         style="font-style:normal;font-variant:normal;font-weight:normal;font-stretch:normal;font-family:JackCondensedPhat;-inkscape-font-specification:JackCondensedPhat;text-align:center;text-anchor:middle;fill:#000000;stroke:#000000;stroke-width:1.065;stroke-linecap:square;stroke-miterlimit:4;stroke-dasharray:none"
         d="m 94.924739,81.401549 h 1.705317 v 6.077129 h 3.493314 v -6.077129 h 1.70532 v -3.0489 h -6.903951 z" />
      <path
         id="path1919"
         style="font-style:normal;font-variant:normal;font-weight:normal;font-stretch:normal;font-family:JackCondensedPhat;-inkscape-font-specification:JackCondensedPhat;text-align:center;text-anchor:middle;fill:#000000;stroke:#000000;stroke-width:1.065;stroke-linecap:square;stroke-miterlimit:4;stroke-dasharray:none"
         d="m 100.76416,87.478678 h 3.49331 v -9.126029 h -3.49331 z" />
      <path
         id="path1921"
         style="font-style:normal;font-variant:normal;font-weight:normal;font-stretch:normal;font-family:JackCondensedPhat;-inkscape-font-specification:JackCondensedPhat;text-align:center;text-anchor:middle;fill:#000000;stroke:#000000;stroke-width:1.065;stroke-linecap:square;stroke-miterlimit:4;stroke-dasharray:none"
         d="m 103.30663,82.920831 q 0,1.870681 0.7338,3.090241 1.00252,1.612299 2.98689,1.612299 1.9947,0 2.98689,-1.612299 0.74414,-1.21956 0.74414,-3.090241 0,-1.881016 -0.74414,-3.090241 -0.99219,-1.622635 -2.98689,-1.622635 -1.98437,0 -2.98689,1.622635 -0.7338,1.209225 -0.7338,3.090241 z" />
      <path
         id="path1923"
         style="font-style:normal;font-variant:normal;font-weight:normal;font-stretch:normal;font-family:JackCondensedPhat;-inkscape-font-specification:JackCondensedPhat;text-align:center;text-anchor:middle;fill:#000000;stroke:#000000;stroke-width:1.065;stroke-linecap:square;stroke-miterlimit:4;stroke-dasharray:none"
         d="m 112.87707,85.628667 0.98185,1.850011 h 2.79052 v -9.126029 h -3.11091 v 1.725987 l -0.91984,-1.725987 h -2.85253 v 9.126029 h 3.11091 z" />
    </g>
    <g
       id="g3544"
       transform="matrix(0.26458333,0,0,0.2789637,83.367472,58.148522)">
      <path
         id="path3524"
         stroke="none"
         fill-rule="evenodd"
         fill="#f16e6e"
         d="M -24.7,-20.05 -8.25,-32.25 27.7,-19.6 18.8,27.65 -6.45,32.8 -22.3,24.6 -24.7,-20.05" />
      <path
         id="path3526"
         stroke="none"
         fill-rule="evenodd"
         fill="#994444"
         d="M 12.05,-6.25 Q 14.4,-6.8 15.1,-7.4 l -0.95,2.9 -2,4.9 Q 11.2,2.4 2.8,3.3 1.7,3.4 -6.5,-1.6 l -8,-5.05 q 5.65,1.15 13.95,1.35 8,0.15 12.6,-0.95" />
      <path
         id="path3528"
         stroke="none"
         fill-rule="evenodd"
         fill="#ffffff"
         d="M 12.15,-5.55 Q 9.9,-2.5 8.7,-1.55 6.75,-0.1 1.8,0.55 L 0.95,-3.9 q 5.1,-0.2 11.2,-1.65" />
      <path
         id="path3530"
         stroke="none"
         fill-rule="evenodd"
         fill="#ffffff"
         d="m -0.55,-3.9 -0.4,4.7 Q -2.55,0.85 -3.3,0.05 L -4.65,-1.2 -7.1,-2.55 -12.25,-6.1 q 5.3,2.1 11.7,2.2" />
      <path
         id="path3532"
         stroke="none"
         fill-rule="evenodd"
         fill="#000000"
         d="m 14.85,-5.8 -1,4.05 -0.4,1.3 -0.3,0.75 -0.35,0.6 -0.05,0.05 H 12.7 V 1 L 12.6,1.1 Q 11.7,1.9 9.65,2.8 L 6.35,3.75 2.75,4.2 1.7,4.1 1.55,4.05 1.1,3.85 1,3.8 0.55,3.55 -0.8,2.6 l -7.5,-5.25 -3.35,-2.5 -1.2,-1 1.45,0.65 3.7,1.85 9.45,5.5 0.4,0.2 L 2.8,2.1 5.95,1.75 9,1 q 1.8,-0.55 2.55,-1.1 0.2,-0.05 0.6,-0.9 l 2.95,-6.4 -0.25,1.6" />
      <path
         id="path3534"
         stroke="none"
         fill-rule="evenodd"
         fill="#000000"
         d="m 13.5,-6.1 q -1.2,0.55 -2.8,0.95 L 7.55,-4.55 4.1,-4.1 0.55,-3.95 -3,-4 -6.45,-4.35 Q -9.7,-4.8 -12.4,-5.7 q -2.65,-0.95 -3.8,-2.25 l -0.65,-1.05 -0.1,-0.4 0.2,0.35 0.85,0.8 q 1.2,0.8 3.85,1.3 l 5.85,0.7 3.3,0.1 h 3.45 l 3.45,-0.1 3.3,-0.2 3.1,-0.35 2.7,-0.45 q 2.85,-0.7 3.7,-1.55 0.5,-0.45 0.6,-0.95 l 0.05,-0.45 0.1,0.45 q 0,0.65 -0.4,1.2 -0.55,0.75 -1.45,1.35 -0.9,0.65 -2.2,1.1" />
      <path
         id="path3536"
         stroke="none"
         fill-rule="evenodd"
         fill="#ffffff"
         d="m 5.25,-20.2 q 3.05,-1.8 6.15,-0.25 3.45,1.75 3.25,6.8 -0.1,3.45 -3.8,3.7 -3.55,0.25 -5.75,-2.3 -2.8,-3.35 -1.6,-5.95 0.4,-0.85 1.1,-1.5 l 0.65,-0.5" />
      <path
         id="path3538"
         stroke="none"
         fill-rule="evenodd"
         fill="#ffffff"
         d="m -2.95,-20.2 0.55,0.6 q 0.6,0.8 0.9,1.8 0.9,3.2 -1.8,7 -1.4,2 -5.7,1.2 -4.55,-0.8 -4.4,-4.35 0.15,-5.35 3.9,-7 3.35,-1.45 6.55,0.75" />
      <path
         id="path3540"
         stroke="none"
         fill-rule="evenodd"
         fill="#000000"
         d="m 4.4,-20.65 q 2,-1.25 3.95,-0.45 1.85,0.8 2.35,2.65 0.5,1.95 0.05,3.4 Q 10.2,-13.3 8.3,-13 4.9,-12.35 3,-15.45 1.05,-18.6 4.4,-20.65" />
      <path
         id="path3542"
         stroke="none"
         fill-rule="evenodd"
         fill="#000000"
         d="m -9.8,-12.7 q -4,-0.35 -3.75,-4.15 0.3,-3.7 3.7,-4.7 1.85,-0.6 3.25,0.75 1.1,1.1 1.55,3.15 0.45,1.9 -0.9,3.45 -1.45,1.7 -3.85,1.5" />
    </g>
    <path
       style="stroke:#000000;stroke-width:0.8;stroke-linecap:round;stroke-linejoin:bevel;stroke-miterlimit:4;stroke-dasharray:none"
       d="m 82.96888,42.040662 q 2.350825,-0.266482 4.020145,0.211576 0.215585,0.06469 0.503639,0.582045 0.271176,0.494172 0.5015,0.530399 1.308132,0.164703 2.451678,1.832532 0.565978,0.838133 0.870014,1.645329 l 0.19945,3.95139 0.562264,0.796502 -0.652027,0.687607 -6.199952,-0.379977 -1.729604,0.949116 -7.060516,-2.085391 -2.120981,-1.390568 0.294107,-0.825997 1.99526,-0.876547 0.185194,-0.52501 0.592607,-1.35371 q 0.34688,-0.704816 1.281888,-1.430008 l 0.862887,-0.592871 1.424225,-1.356311 2.018222,-0.370106"
       fill="#000000"
       fill-rule="evenodd"
       stroke="none"
       id="path3445" />
    <path
       style="stroke-width:0.202744"
       d="m 82.673646,42.74334 0.951223,-0.04536 0.974965,-5.8e-4 q 1.162082,0.04938 2.09452,0.319176 l 0.203548,0.206466 q 0.09182,0.199155 0.198823,0.236509 l 1.196071,0.485718 q 0.709541,0.316837 1.043388,0.738772 0.988377,1.284259 1.340029,3.289316 0.259039,1.354258 0.170735,2.633359 l 0.456951,0.944128 -6.063916,-0.266224 -2.191944,0.691684 -5.748553,-1.684064 -2.146182,-1.230343 2.326172,-0.957902 q 0.297241,-1.759331 1.727202,-3.217359 0.718412,-0.718212 1.374833,-1.107534 l 0.734163,-0.818354 0.380984,-0.07348 0.976988,-0.143927"
       fill="#fbbd00"
       fill-rule="evenodd"
       stroke="none"
       id="path3447" />
    <path
       style="stroke-width:0.202744"
       d="m 87.371947,43.667028 q -0.814408,-0.302546 -1.917749,0.05753 -2.196669,0.721726 -3.621309,4.037982 l -0.721331,1.128227 0.105414,-0.865937 q 0.197,-1.056769 0.645479,-1.950842 1.425436,-2.86461 4.831903,-3.057412 l 0.677593,0.650453"
       fill="#d69944"
       fill-rule="evenodd"
       stroke="none"
       id="path3449" />
    <path
       style="stroke-width:0.202744"
       d="m 86.783149,50.542201 q -3.584134,0.08276 -4.345769,-0.0986 -3.20834,-0.740647 -4.653651,-2.055728 l 4.751305,1.434855 7.675174,0.591484 -3.427059,0.127992"
       fill="#d69944"
       fill-rule="evenodd"
       stroke="none"
       id="path3451" />
    <g
       style="font-size:10.5833px;line-height:0.8;font-family:'Ostrich Sans';-inkscape-font-specification:'Ostrich Sans';fill:#ffffff;stroke-width:0.264583"
       id="text3567"
       aria-label="UNDER
CONSTRUCTION">
      <path
         id="path1856"
         style="font-style:normal;font-variant:normal;font-weight:normal;font-stretch:normal;font-size:12.7px;font-family:JackCondensed;-inkscape-font-specification:JackCondensed;text-align:center;text-anchor:middle;fill:#ffffff;stroke-width:0.264583"
         d="m 71.692412,67.471448 h -1.909961 v 6.163965 q 0,1.389062 -0.930176,1.389062 -0.992187,0 -0.992187,-1.277441 v -6.275586 h -2.294434 v 6.176367 q 0,3.050977 3.001367,3.050977 3.125391,0 3.125391,-3.050977 z" />
      <path
         id="path1858"
         style="font-style:normal;font-variant:normal;font-weight:normal;font-stretch:normal;font-size:12.7px;font-family:JackCondensed;-inkscape-font-specification:JackCondensed;text-align:center;text-anchor:middle;fill:#ffffff;stroke-width:0.264583"
         d="m 72.858232,76.512756 h 1.835547 v -5.035351 l 0.02481,-0.02481 2.716113,5.060156 h 1.785938 v -9.041303 h -1.82315 v 4.861719 0 l -2.629297,-4.861719 h -1.909961 z" />
      <path
         id="path1860"
         style="font-style:normal;font-variant:normal;font-weight:normal;font-stretch:normal;font-size:12.7px;font-family:JackCondensed;-inkscape-font-specification:JackCondensed;text-align:center;text-anchor:middle;fill:#ffffff;stroke-width:0.264583"
         d="m 82.693291,69.07135 h 0.186035 q 1.661914,0 1.661914,2.691309 0,1.37666 -0.198437,2.021582 -0.359668,1.128613 -1.401465,1.128613 h -0.248047 z m -2.294433,7.441406 h 2.75332 q 1.984375,0 2.988965,-1.37666 0.868164,-1.215429 0.868164,-3.286621 0,-2.058789 -1.016992,-3.199804 -1.066602,-1.178223 -3.112989,-1.178223 h -2.480468 z" />
      <path
         id="path1862"
         style="font-style:normal;font-variant:normal;font-weight:normal;font-stretch:normal;font-size:12.7px;font-family:JackCondensed;-inkscape-font-specification:JackCondensed;text-align:center;text-anchor:middle;fill:#ffffff;stroke-width:0.264583"
         d="m 87.691436,76.512756 h 5.692676 V 74.689612 H 89.98587 v -1.885156 h 2.282031 V 71.055725 H 89.98587 v -1.823144 h 3.398242 v -1.761133 h -5.692676 z" />
      <path
         id="path1864"
         style="font-style:normal;font-variant:normal;font-weight:normal;font-stretch:normal;font-size:12.7px;font-family:JackCondensed;-inkscape-font-specification:JackCondensed;text-align:center;text-anchor:middle;fill:#ffffff;stroke-width:0.264583"
         d="m 96.335868,69.145764 h 0.372071 q 0.731738,0 1.041796,0.161231 0.446485,0.223242 0.446485,0.855761 0,0.992188 -1.42627,0.992188 h -0.434082 z m -2.294433,7.366992 h 2.294433 v -3.906738 h 0.756543 l 1.128614,3.906738 h 2.257225 l -1.500683,-4.390429 q 0.669727,-0.248047 1.091403,-0.818555 0.40928,-0.570508 0.40928,-1.265039 0,-1.289844 -0.892968,-1.971973 -0.806152,-0.595312 -2.133203,-0.595312 h -3.410644 z" />
      <path
         id="path1866"
         style="font-style:normal;font-variant:normal;font-weight:normal;font-stretch:normal;font-family:JackCondensed;-inkscape-font-specification:JackCondensed;text-align:center;text-anchor:middle;fill:#ffffff;stroke-width:0.264583"
         d="m 54.860453,81.742586 v 0 q 0,-1.281571 -0.682127,-2.025709 -0.682126,-0.754474 -1.953363,-0.754474 -1.539952,0 -2.304761,1.240231 -0.630451,1.02319 -0.630451,2.67683 0,1.705317 0.60978,2.697502 0.744139,1.219559 2.325432,1.219559 1.240231,0 1.953363,-0.775144 0.682127,-0.744138 0.682127,-1.994704 l -1.65364,-0.144693 q -0.02067,0.682127 -0.144694,0.992184 -0.206705,0.516763 -0.754474,0.516763 -0.609779,0 -0.816485,-0.671792 -0.144693,-0.496092 -0.144693,-1.829339 0,-1.229896 0.165364,-1.787999 0.206705,-0.744139 0.754473,-0.744139 0.816485,0 0.816485,1.384924 z" />
      <path
         id="path1868"
         style="font-style:normal;font-variant:normal;font-weight:normal;font-stretch:normal;font-family:JackCondensed;-inkscape-font-specification:JackCondensed;text-align:center;text-anchor:middle;fill:#ffffff;stroke-width:0.264583"
         d="m 57.237562,82.879464 v 0 q 0,-1.395259 0.103352,-1.82934 0.165364,-0.692462 0.775144,-0.692462 0.60978,0 0.775144,0.692462 0.103353,0.434081 0.103353,1.82934 0,1.384924 -0.103353,1.80867 -0.175699,0.713132 -0.775144,0.713132 -0.599445,0 -0.775144,-0.713132 -0.103352,-0.423746 -0.103352,-1.80867 z m -2.056716,0 v 0 q 0,1.653641 0.630451,2.676831 0.754473,1.24023 2.304761,1.24023 1.550288,0 2.304762,-1.24023 0.63045,-1.02319 0.63045,-2.676831 0,-1.65364 -0.63045,-2.67683 -0.754474,-1.240231 -2.304762,-1.240231 -1.550288,0 -2.304761,1.240231 -0.630451,1.02319 -0.630451,2.67683 z" />
      <path
         id="path1870"
         style="font-style:normal;font-variant:normal;font-weight:normal;font-stretch:normal;font-family:JackCondensed;-inkscape-font-specification:JackCondensed;text-align:center;text-anchor:middle;fill:#ffffff;stroke-width:0.264583"
         d="m 61.640379,86.641497 h 1.529618 v -4.196113 l 0.02067,-0.02067 2.263421,4.216784 h 1.488276 v -7.5344 h -1.519282 v 4.051419 0 l -2.191074,-4.051419 h -1.591629 v 7.5344 z" />
      <path
         id="path1872"
         style="font-style:normal;font-variant:normal;font-weight:normal;font-stretch:normal;font-family:JackCondensed;-inkscape-font-specification:JackCondensed;text-align:center;text-anchor:middle;fill:#ffffff;stroke-width:0.264583"
         d="m 67.36611,84.884504 v 0 q 0.320393,0.909502 1.054196,1.415929 0.723468,0.496092 1.694982,0.496092 1.157548,0 1.932692,-0.692462 0.816485,-0.723467 0.816485,-1.860345 0,-1.012855 -0.878497,-1.643305 -0.320392,-0.217041 -1.65364,-0.775145 -0.878497,-0.351398 -0.878497,-0.764808 0,-0.289387 0.186035,-0.465087 0.186034,-0.175699 0.475422,-0.175699 0.651121,0 1.033525,0.837156 l 1.519282,-0.630451 q -0.279052,-0.785479 -1.012855,-1.24023 -0.671791,-0.423746 -1.539952,-0.423746 -0.919838,0 -1.653641,0.599445 -0.785479,0.640786 -0.785479,1.539953 0,1.24023 0.868161,1.881016 0.227376,0.155029 1.6123,0.754473 0.868161,0.361734 0.868161,0.961179 0,0.279052 -0.237711,0.454751 -0.248046,0.175699 -0.547768,0.175699 -0.506428,0 -0.816485,-0.299722 -0.248046,-0.248046 -0.485757,-0.775144 z" />
      <path
         id="path1874"
         style="font-style:normal;font-variant:normal;font-weight:normal;font-stretch:normal;font-family:JackCondensed;-inkscape-font-specification:JackCondensed;text-align:center;text-anchor:middle;fill:#ffffff;stroke-width:0.264583"
         d="m 72.833458,80.574703 h 1.705317 v 6.066794 h 1.912022 v -6.066794 h 1.694982 v -1.467606 h -5.312321 z" />
      <path
         id="path1876"
         style="font-style:normal;font-variant:normal;font-weight:normal;font-stretch:normal;font-family:JackCondensed;-inkscape-font-specification:JackCondensed;text-align:center;text-anchor:middle;fill:#ffffff;stroke-width:0.264583"
         d="m 80.440205,80.502356 h 0.310058 q 0.60978,0 0.868161,0.134358 0.372069,0.186035 0.372069,0.713133 0,0.82682 -1.188554,0.82682 h -0.361734 z m -1.912022,6.139141 h 1.912022 v -3.255605 h 0.630451 l 0.940508,3.255605 h 1.881016 l -1.250566,-3.65868 q 0.558104,-0.206705 0.909503,-0.682127 0.341063,-0.475422 0.341063,-1.054196 0,-1.074866 -0.744138,-1.643305 -0.671792,-0.496092 -1.777664,-0.496092 h -2.842195 z" />
      <path
         id="path1878"
         style="font-style:normal;font-variant:normal;font-weight:normal;font-stretch:normal;font-family:JackCondensed;-inkscape-font-specification:JackCondensed;text-align:center;text-anchor:middle;fill:#ffffff;stroke-width:0.264583"
         d="m 89.524895,79.107097 h -1.591629 v 5.136621 q 0,1.157548 -0.775144,1.157548 -0.826821,0 -0.826821,-1.064531 V 79.107097 H 84.41928 v 5.146956 q 0,2.542472 2.501131,2.542472 2.604484,0 2.604484,-2.542472 z" />
      <path
         id="path1880"
         style="font-style:normal;font-variant:normal;font-weight:normal;font-stretch:normal;font-family:JackCondensed;-inkscape-font-specification:JackCondensed;text-align:center;text-anchor:middle;fill:#ffffff;stroke-width:0.264583"
         d="m 95.684702,81.742586 v 0 q 0,-1.281571 -0.682126,-2.025709 -0.682127,-0.754474 -1.953363,-0.754474 -1.539953,0 -2.304762,1.240231 -0.63045,1.02319 -0.63045,2.67683 0,1.705317 0.60978,2.697502 0.744138,1.219559 2.325432,1.219559 1.24023,0 1.953363,-0.775144 0.682126,-0.744138 0.682126,-1.994704 l -1.65364,-0.144693 q -0.02067,0.682127 -0.144694,0.992184 -0.206705,0.516763 -0.754473,0.516763 -0.60978,0 -0.816485,-0.671792 -0.144694,-0.496092 -0.144694,-1.829339 0,-1.229896 0.165364,-1.787999 0.206705,-0.744139 0.754474,-0.744139 0.816485,0 0.816485,1.384924 z" />
      <path
         id="path1882"
         style="font-style:normal;font-variant:normal;font-weight:normal;font-stretch:normal;font-family:JackCondensed;-inkscape-font-specification:JackCondensed;text-align:center;text-anchor:middle;fill:#ffffff;stroke-width:0.264583"
         d="m 95.798394,80.574703 h 1.705316 v 6.066794 h 1.912022 v -6.066794 h 1.694978 v -1.467606 h -5.312316 z" />
      <path
         id="path1884"
         style="font-style:normal;font-variant:normal;font-weight:normal;font-stretch:normal;font-family:JackCondensed;-inkscape-font-specification:JackCondensed;text-align:center;text-anchor:middle;fill:#ffffff;stroke-width:0.264583"
         d="m 101.52412,86.641497 h 1.91202 v -7.5344 h -1.91202 z" />
      <path
         id="path1886"
         style="font-style:normal;font-variant:normal;font-weight:normal;font-stretch:normal;font-family:JackCondensed;-inkscape-font-specification:JackCondensed;text-align:center;text-anchor:middle;fill:#ffffff;stroke-width:0.264583"
         d="m 106.12331,82.879464 v 0 q 0,-1.395259 0.10335,-1.82934 0.16537,-0.692462 0.77515,-0.692462 0.60978,0 0.77514,0.692462 0.10335,0.434081 0.10335,1.82934 0,1.384924 -0.10335,1.80867 -0.1757,0.713132 -0.77514,0.713132 -0.59945,0 -0.77515,-0.713132 -0.10335,-0.423746 -0.10335,-1.80867 z m -2.05671,0 v 0 q 0,1.653641 0.63045,2.676831 0.75447,1.24023 2.30476,1.24023 1.55029,0 2.30476,-1.24023 0.63045,-1.02319 0.63045,-2.676831 0,-1.65364 -0.63045,-2.67683 -0.75447,-1.240231 -2.30476,-1.240231 -1.55029,0 -2.30476,1.240231 -0.63045,1.02319 -0.63045,2.67683 z" />
      <path
         id="path1888"
         style="font-style:normal;font-variant:normal;font-weight:normal;font-stretch:normal;font-family:JackCondensed;-inkscape-font-specification:JackCondensed;text-align:center;text-anchor:middle;fill:#ffffff;stroke-width:0.264583"
         d="m 110.52613,86.641497 h 1.52962 v -4.196113 l 0.0207,-0.02067 2.26342,4.216784 h 1.48827 v -7.5344 h -1.51928 v 4.051419 0 l -2.19107,-4.051419 h -1.59163 v 7.5344 z" />
    </g>
  </g>
</svg>
