<?xml version="1.0" encoding="UTF-8" standalone="no"?>
<svg
   xmlns:dc="http://purl.org/dc/elements/1.1/"
   xmlns:cc="http://creativecommons.org/ns#"
   xmlns:rdf="http://www.w3.org/1999/02/22-rdf-syntax-ns#"
   xmlns:svg="http://www.w3.org/2000/svg"
   xmlns="http://www.w3.org/2000/svg"
   xmlns:sodipodi="http://sodipodi.sourceforge.net/DTD/sodipodi-0.dtd"
   xmlns:inkscape="http://www.inkscape.org/namespaces/inkscape"
   sodipodi:docname="drawing2.svg"
   inkscape:version="1.0 (4035a4fb49, 2020-05-01)"
   id="svg893"
   version="1.1"
   viewBox="0 0 210 104.84883"
   height="104.84883mm"
   width="210mm">
  <defs
     id="defs887" />
  <sodipodi:namedview
     inkscape:window-maximized="1"
     inkscape:window-y="-8"
     inkscape:window-x="-8"
     inkscape:window-height="1017"
     inkscape:window-width="1920"
     showgrid="false"
     inkscape:document-rotation="0"
     inkscape:current-layer="layer1"
     inkscape:document-units="mm"
     inkscape:cy="282.02384"
     inkscape:cx="478.13298"
     inkscape:zoom="0.68832853"
     inkscape:pageshadow="2"
     inkscape:pageopacity="0.0"
     borderopacity="1.0"
     bordercolor="#666666"
     pagecolor="#ffffff"
     id="base" />
  <metadata
     id="metadata890">
    <rdf:RDF>
      <cc:Work
         rdf:about="">
        <dc:format>image/svg+xml</dc:format>
        <dc:type
           rdf:resource="http://purl.org/dc/dcmitype/StillImage" />
        <dc:title></dc:title>
      </cc:Work>
    </rdf:RDF>
  </metadata>
  <g
     transform="translate(2.0929462,-7.5166955)"
     id="layer1"
     inkscape:groupmode="layer"
     inkscape:label="Layer 1">
    <rect
       ry="0"
       y="7.761055"
       x="-1.6992829"
       height="9.3279362"
       width="214.15396"
       id="rect1439"
       style="fill:#ffff00;fill-opacity:1;stroke:none;stroke-width:2.17165;stroke-linecap:round;stroke-linejoin:round;stroke-miterlimit:4;stroke-dasharray:none;paint-order:stroke fill markers"
       transform="rotate(6.5469495)" />
    <g
       style="font-size:8.84377px;line-height:1.25;font-family:'Ostrich Sans';-inkscape-font-specification:'Ostrich Sans';stroke-width:0.221094"
       id="text3365"
       transform="rotate(6.5469495,230.24038,-31.733062)"
       aria-label="UNDER CONSTRUCTION    DO NOT CROSS               THEDARKSID3R LINE    DO N">
      <path
         id="path1519"
         style="font-style:normal;font-variant:normal;font-weight:normal;font-stretch:normal;font-family:JackExtraCond;-inkscape-font-specification:JackExtraCond;stroke-width:0.221094"
         d="m 8.4046705,39.933064 q 0,1.701389 1.4768405,1.701389 1.468204,0 1.468204,-1.701389 v -4.724163 h -0.967287 v 4.870983 q 0,0.578645 -0.431825,0.578645 -0.3972788,0 -0.3972788,-0.578645 V 35.208901 H 8.4046705 Z" />
      <path
         id="path1521"
         style="font-style:normal;font-variant:normal;font-weight:normal;font-stretch:normal;font-family:JackExtraCond;-inkscape-font-specification:JackExtraCond;stroke-width:0.221094"
         d="m 12.014725,41.504906 h 0.975924 v -3.808694 l 0.02591,-0.0086 1.260928,3.817331 H 15.1325 v -6.296005 h -0.924104 v 3.325051 L 13.13747,35.208938 h -1.122744 v 6.296005 z" />
      <path
         id="path1523"
         style="font-style:normal;font-variant:normal;font-weight:normal;font-stretch:normal;font-family:JackExtraCond;-inkscape-font-specification:JackExtraCond;stroke-width:0.221094"
         d="m 16.972073,36.184825 q 0.397278,0.0086 0.544099,0.155457 0.215912,0.250459 0.215912,2.012303 0,1.485477 -0.103638,1.805028 -0.120911,0.371369 -0.656373,0.380005 z m -1.148654,5.320081 h 1.1832 q 1.217745,0 1.632297,-0.889559 0.302277,-0.647737 0.302277,-2.254125 0,-1.658207 -0.336823,-2.288671 -0.449098,-0.86365 -1.779118,-0.86365 h -1.001833 z" />
      <path
         id="path1525"
         style="font-style:normal;font-variant:normal;font-weight:normal;font-stretch:normal;font-family:JackExtraCond;-inkscape-font-specification:JackExtraCond;stroke-width:0.221094"
         d="m 19.58893,41.504906 h 2.66004 v -0.975924 h -1.511386 v -1.710026 h 1.070925 v -1.027743 h -1.070925 v -1.606388 h 1.450931 V 35.208901 H 19.58893 Z" />
      <path
         id="path1527"
         style="font-style:normal;font-variant:normal;font-weight:normal;font-stretch:normal;font-family:JackExtraCond;-inkscape-font-specification:JackExtraCond;stroke-width:0.221094"
         d="m 22.698069,41.504906 h 1.148653 v -2.703223 h 0.276368 l 0.535463,2.703223 h 1.15729 l -0.673647,-2.970954 q 0.673647,-0.397279 0.673647,-1.537296 0,-1.787755 -1.8223,-1.787755 h -1.295474 z m 1.148653,-5.3719 h 0.181367 q 0.6391,0 0.6391,0.872286 0,0.872286 -0.587281,0.872286 h -0.233186 z" />
      <path
         id="path1529"
         style="font-style:normal;font-variant:normal;font-weight:normal;font-stretch:normal;font-family:JackExtraCond;-inkscape-font-specification:JackExtraCond;stroke-width:0.221094"
         d="m 30.997739,37.45439 q 0,-1.062289 -0.233186,-1.589115 -0.345459,-0.777284 -1.252291,-0.777284 -1.640934,0 -1.640934,3.273231 0,1.33002 0.224549,2.055485 0.380005,1.217746 1.416385,1.217746 0.915468,0 1.260928,-0.820467 0.241822,-0.535462 0.241822,-1.606388 l -0.975924,-0.04318 q -0.0086,0.604554 -0.05182,0.855013 -0.112274,0.6391 -0.431825,0.6391 -0.285004,0 -0.371369,-0.371369 -0.103638,-0.449098 -0.103638,-1.925938 0,-0.975924 0.02591,-1.269565 0.095,-1.027743 0.449097,-1.027743 0.414552,0 0.414552,1.425022 l 1.027743,-0.03455 z" />
      <path
         id="path1531"
         style="font-style:normal;font-variant:normal;font-weight:normal;font-stretch:normal;font-family:JackExtraCond;-inkscape-font-specification:JackExtraCond;stroke-width:0.221094"
         d="m 32.733675,37.696212 q 0,-0.69092 0.02591,-0.915469 0.095,-0.716829 0.397279,-0.716829 0.310913,0 0.397278,0.716829 0.02591,0.224549 0.02591,0.915469 v 1.321383 q 0,0.69092 -0.02591,0.924105 -0.08637,0.716829 -0.397278,0.716829 -0.302278,0 -0.397279,-0.716829 -0.02591,-0.233185 -0.02591,-0.924105 z m -1.252291,0.66501 q 0,3.273231 1.67548,3.273231 1.684116,0 1.684116,-3.273231 0,-3.273231 -1.684116,-3.273231 -1.67548,0 -1.67548,3.273231 z" />
      <path
         id="path1533"
         style="font-style:normal;font-variant:normal;font-weight:normal;font-stretch:normal;font-family:JackExtraCond;-inkscape-font-specification:JackExtraCond;stroke-width:0.221094"
         d="m 35.367805,41.504906 h 0.975924 v -3.808694 l 0.02591,-0.0086 1.260928,3.817331 h 0.855013 v -6.296005 h -0.924105 v 3.325051 L 36.49055,35.208901 h -1.122745 z" />
      <path
         id="path1535"
         style="font-style:normal;font-variant:normal;font-weight:normal;font-stretch:normal;font-family:JackExtraCond;-inkscape-font-specification:JackExtraCond;stroke-width:0.221094"
         d="m 38.934678,39.682605 q 0,1.951848 1.476841,1.951848 0.742738,0 1.1832,-0.509553 0.405915,-0.466371 0.405915,-1.226382 0,-0.785921 -0.544099,-1.425022 -0.06046,-0.06909 -1.01047,-0.924105 -0.535463,-0.49228 -0.535463,-0.915468 0,-0.570009 0.431825,-0.570009 0.466371,0 0.466371,0.941378 h 1.019106 q -0.04318,-1.917301 -1.459568,-1.917301 -0.716829,0 -1.114107,0.509553 -0.37137,0.46637 -0.37137,1.200472 0,0.811831 0.5441,1.425022 l 1.001833,0.898195 q 0.544099,0.475007 0.544099,0.924105 0,0.250459 -0.138184,0.431825 -0.129547,0.181366 -0.380006,0.181366 -0.49228,0 -0.49228,-0.975924 z" />
      <path
         id="path1537"
         style="font-style:normal;font-variant:normal;font-weight:normal;font-stretch:normal;font-family:JackExtraCond;-inkscape-font-specification:JackExtraCond;stroke-width:0.221094"
         d="m 43.26156,41.504906 h 1.148654 v -5.320081 h 0.98456 v -0.975924 h -3.126411 v 0.975924 h 0.993197 z" />
      <path
         id="path1539"
         style="font-style:normal;font-variant:normal;font-weight:normal;font-stretch:normal;font-family:JackExtraCond;-inkscape-font-specification:JackExtraCond;stroke-width:0.221094"
         d="m 45.964783,41.504906 h 1.148653 v -2.703223 h 0.276368 l 0.535463,2.703223 h 1.15729 L 48.40891,38.533952 q 0.673647,-0.397279 0.673647,-1.537296 0,-1.787755 -1.8223,-1.787755 h -1.295474 z m 1.148653,-5.3719 h 0.181367 q 0.6391,0 0.6391,0.872286 0,0.872286 -0.587281,0.872286 h -0.233186 z" />
      <path
         id="path1541"
         style="font-style:normal;font-variant:normal;font-weight:normal;font-stretch:normal;font-family:JackExtraCond;-inkscape-font-specification:JackExtraCond;stroke-width:0.221094"
         d="m 49.531654,39.933064 q 0,1.701389 1.476841,1.701389 1.468204,0 1.468204,-1.701389 v -4.724163 h -0.967288 v 4.870983 q 0,0.578645 -0.431824,0.578645 -0.397279,0 -0.397279,-0.578645 v -4.870983 h -1.148654 z" />
      <path
         id="path1543"
         style="font-style:normal;font-variant:normal;font-weight:normal;font-stretch:normal;font-family:JackExtraCond;-inkscape-font-specification:JackExtraCond;stroke-width:0.221094"
         d="m 56.147212,37.45439 q 0,-1.062289 -0.233185,-1.589115 -0.34546,-0.777284 -1.252292,-0.777284 -1.640934,0 -1.640934,3.273231 0,1.33002 0.224549,2.055485 0.380006,1.217746 1.416385,1.217746 0.915468,0 1.260928,-0.820467 0.241822,-0.535462 0.241822,-1.606388 l -0.975924,-0.04318 q -0.0086,0.604554 -0.05182,0.855013 -0.112274,0.6391 -0.431825,0.6391 -0.285004,0 -0.371369,-0.371369 -0.103638,-0.449098 -0.103638,-1.925938 0,-0.975924 0.02591,-1.269565 0.095,-1.027743 0.449097,-1.027743 0.414552,0 0.414552,1.425022 l 1.027743,-0.03455 z" />
      <path
         id="path1545"
         style="font-style:normal;font-variant:normal;font-weight:normal;font-stretch:normal;font-family:JackExtraCond;-inkscape-font-specification:JackExtraCond;stroke-width:0.221094"
         d="m 57.598142,41.504906 h 1.148654 v -5.320081 h 0.98456 v -0.975924 h -3.12641 v 0.975924 h 0.993196 z" />
      <path
         id="path1547"
         style="font-style:normal;font-variant:normal;font-weight:normal;font-stretch:normal;font-family:JackExtraCond;-inkscape-font-specification:JackExtraCond;stroke-width:0.221094"
         d="m 60.344547,41.504906 h 1.148654 v -6.296005 h -1.148654 z" />
      <path
         id="path1549"
         style="font-style:normal;font-variant:normal;font-weight:normal;font-stretch:normal;font-family:JackExtraCond;-inkscape-font-specification:JackExtraCond;stroke-width:0.221094"
         d="m 63.306864,37.696212 q 0,-0.69092 0.02591,-0.915469 0.095,-0.716829 0.397278,-0.716829 0.310914,0 0.397279,0.716829 0.02591,0.224549 0.02591,0.915469 v 1.321383 q 0,0.69092 -0.02591,0.924105 -0.08637,0.716829 -0.397279,0.716829 -0.302277,0 -0.397278,-0.716829 -0.02591,-0.233185 -0.02591,-0.924105 z m -1.252291,0.66501 q 0,3.273231 1.675479,3.273231 1.684117,0 1.684117,-3.273231 0,-3.273231 -1.684117,-3.273231 -1.675479,0 -1.675479,3.273231 z" />
      <path
         id="path1551"
         style="font-style:normal;font-variant:normal;font-weight:normal;font-stretch:normal;font-family:JackExtraCond;-inkscape-font-specification:JackExtraCond;stroke-width:0.221094"
         d="m 65.940994,41.504906 h 0.975924 v -3.808694 l 0.02591,-0.0086 1.260929,3.817331 h 0.855012 v -6.296005 h -0.924104 v 3.325051 l -1.070926,-3.325051 h -1.122744 v 6.296005 z" />
      <path
         id="path1553"
         style="font-style:normal;font-variant:normal;font-weight:normal;font-stretch:normal;font-family:JackExtraCond;-inkscape-font-specification:JackExtraCond;stroke-width:0.221094"
         d="m 77.807536,36.184825 q 0.397278,0.0086 0.544099,0.155457 0.215912,0.250459 0.215912,2.012303 0,1.485477 -0.103638,1.805028 -0.120911,0.371369 -0.656373,0.380005 z m -1.148654,5.320081 h 1.1832 q 1.217745,0 1.632297,-0.889559 0.302277,-0.647737 0.302277,-2.254125 0,-1.658207 -0.336823,-2.288671 -0.449098,-0.86365 -1.779118,-0.86365 h -1.001833 z" />
      <path
         id="path1555"
         style="font-style:normal;font-variant:normal;font-weight:normal;font-stretch:normal;font-family:JackExtraCond;-inkscape-font-specification:JackExtraCond;stroke-width:0.221094"
         d="m 81.512591,37.696212 q 0,-0.69092 0.02591,-0.915469 0.095,-0.716829 0.397279,-0.716829 0.310914,0 0.397279,0.716829 0.02591,0.224549 0.02591,0.915469 v 1.321383 q 0,0.69092 -0.02591,0.924105 -0.08637,0.716829 -0.397279,0.716829 -0.302277,0 -0.397279,-0.716829 -0.02591,-0.233185 -0.02591,-0.924105 z m -1.252292,0.66501 q 0,3.273231 1.67548,3.273231 1.684116,0 1.684116,-3.273231 0,-3.273231 -1.684116,-3.273231 -1.67548,0 -1.67548,3.273231 z" />
      <path
         id="path1557"
         style="font-style:normal;font-variant:normal;font-weight:normal;font-stretch:normal;font-family:JackExtraCond;-inkscape-font-specification:JackExtraCond;stroke-width:0.221094"
         d="m 85.874023,41.504906 h 0.975924 v -3.808694 l 0.02591,-0.0086 1.260928,3.817331 h 0.855013 v -6.296005 h -0.924105 v 3.325051 l -1.070926,-3.325051 h -1.122744 v 6.296005 z" />
      <path
         id="path1559"
         style="font-style:normal;font-variant:normal;font-weight:normal;font-stretch:normal;font-family:JackExtraCond;-inkscape-font-specification:JackExtraCond;stroke-width:0.221094"
         d="m 90.770915,37.696212 q 0,-0.69092 0.02591,-0.915469 0.095,-0.716829 0.397279,-0.716829 0.310914,0 0.397278,0.716829 0.02591,0.224549 0.02591,0.915469 v 1.321383 q 0,0.69092 -0.02591,0.924105 -0.08636,0.716829 -0.397278,0.716829 -0.302278,0 -0.397279,-0.716829 -0.02591,-0.233185 -0.02591,-0.924105 z m -1.252292,0.66501 q 0,3.273231 1.67548,3.273231 1.684116,0 1.684116,-3.273231 0,-3.273231 -1.684116,-3.273231 -1.67548,0 -1.67548,3.273231 z" />
      <path
         id="path1561"
         style="font-style:normal;font-variant:normal;font-weight:normal;font-stretch:normal;font-family:JackExtraCond;-inkscape-font-specification:JackExtraCond;stroke-width:0.221094"
         d="m 94.251421,41.504906 h 1.148653 v -5.320081 h 0.984561 v -0.975924 h -3.126411 v 0.975924 h 0.993197 z" />
      <path
         id="path1563"
         style="font-style:normal;font-variant:normal;font-weight:normal;font-stretch:normal;font-family:JackExtraCond;-inkscape-font-specification:JackExtraCond;stroke-width:0.221094"
         d="m 101.64426,37.45439 q 0,-1.062289 -0.23318,-1.589115 -0.34546,-0.777284 -1.25229,-0.777284 -1.640938,0 -1.640938,3.273231 0,1.33002 0.224549,2.055485 0.380006,1.217746 1.416389,1.217746 0.91546,0 1.26092,-0.820467 0.24183,-0.535462 0.24183,-1.606388 l -0.97593,-0.04318 q -0.009,0.604554 -0.0518,0.855013 -0.11227,0.6391 -0.43182,0.6391 -0.285006,0 -0.371371,-0.371369 -0.103638,-0.449098 -0.103638,-1.925938 0,-0.975924 0.02591,-1.269565 0.095,-1.027743 0.449099,-1.027743 0.41455,0 0.41455,1.425022 l 1.02774,-0.03455 z" />
      <path
         id="path1565"
         style="font-style:normal;font-variant:normal;font-weight:normal;font-stretch:normal;font-family:JackExtraCond;-inkscape-font-specification:JackExtraCond;stroke-width:0.221094"
         d="m 102.292,41.504906 h 1.14865 v -2.703223 h 0.27637 l 0.53546,2.703223 h 1.15729 l -0.67364,-2.970954 q 0.67364,-0.397279 0.67364,-1.537296 0,-1.787755 -1.8223,-1.787755 H 102.292 Z m 1.14865,-5.3719 h 0.18137 q 0.6391,0 0.6391,0.872286 0,0.872286 -0.58728,0.872286 h -0.23319 z" />
      <path
         id="path1567"
         style="font-style:normal;font-variant:normal;font-weight:normal;font-stretch:normal;font-family:JackExtraCond;-inkscape-font-specification:JackExtraCond;stroke-width:0.221094"
         d="m 106.99025,37.696212 q 0,-0.69092 0.0259,-0.915469 0.095,-0.716829 0.39728,-0.716829 0.31091,0 0.39728,0.716829 0.0259,0.224549 0.0259,0.915469 v 1.321383 q 0,0.69092 -0.0259,0.924105 -0.0864,0.716829 -0.39728,0.716829 -0.30228,0 -0.39728,-0.716829 -0.0259,-0.233185 -0.0259,-0.924105 z m -1.25229,0.66501 q 0,3.273231 1.67548,3.273231 1.68412,0 1.68412,-3.273231 0,-3.273231 -1.68412,-3.273231 -1.67548,0 -1.67548,3.273231 z" />
      <path
         id="path1569"
         style="font-style:normal;font-variant:normal;font-weight:normal;font-stretch:normal;font-family:JackExtraCond;-inkscape-font-specification:JackExtraCond;stroke-width:0.221094"
         d="m 109.42574,39.682605 q 0,1.951848 1.47684,1.951848 0.74274,0 1.1832,-0.509553 0.40592,-0.466371 0.40592,-1.226382 0,-0.785921 -0.5441,-1.425022 -0.0605,-0.06909 -1.01047,-0.924105 -0.53546,-0.49228 -0.53546,-0.915468 0,-0.570009 0.43182,-0.570009 0.46637,0 0.46637,0.941378 h 1.01911 q -0.0432,-1.917301 -1.45957,-1.917301 -0.71683,0 -1.11411,0.509553 -0.37137,0.46637 -0.37137,1.200472 0,0.811831 0.5441,1.425022 l 1.00184,0.898195 q 0.5441,0.475007 0.5441,0.924105 0,0.250459 -0.13819,0.431825 -0.12955,0.181366 -0.38,0.181366 -0.49228,0 -0.49228,-0.975924 z" />
      <path
         id="path1571"
         style="font-style:normal;font-variant:normal;font-weight:normal;font-stretch:normal;font-family:JackExtraCond;-inkscape-font-specification:JackExtraCond;stroke-width:0.221094"
         d="m 112.70761,39.682605 q 0,1.951848 1.47684,1.951848 0.74274,0 1.1832,-0.509553 0.40592,-0.466371 0.40592,-1.226382 0,-0.785921 -0.5441,-1.425022 -0.0605,-0.06909 -1.01047,-0.924105 -0.53547,-0.49228 -0.53547,-0.915468 0,-0.570009 0.43183,-0.570009 0.46637,0 0.46637,0.941378 h 1.01911 q -0.0432,-1.917301 -1.45957,-1.917301 -0.71683,0 -1.11411,0.509553 -0.37137,0.46637 -0.37137,1.200472 0,0.811831 0.5441,1.425022 l 1.00183,0.898195 q 0.5441,0.475007 0.5441,0.924105 0,0.250459 -0.13818,0.431825 -0.12955,0.181366 -0.38001,0.181366 -0.49228,0 -0.49228,-0.975924 z" />
      <path
         id="path1573"
         style="font-style:normal;font-variant:normal;font-weight:normal;font-stretch:normal;font-family:JackExtraCond;-inkscape-font-specification:JackExtraCond;stroke-width:0.221094"
         d="m 142.94398,41.504906 h 1.14865 v -5.320081 h 0.98456 v -0.975924 h -3.12641 v 0.975924 h 0.9932 z" />
      <path
         id="path1575"
         style="font-style:normal;font-variant:normal;font-weight:normal;font-stretch:normal;font-family:JackExtraCond;-inkscape-font-specification:JackExtraCond;stroke-width:0.221094"
         d="m 145.64719,41.504906 h 1.14866 v -2.668677 h 0.72546 v 2.668677 h 1.14866 v -6.296005 h -1.14866 v 2.530493 h -0.72546 v -2.530493 h -1.14866 z" />
      <path
         id="path1577"
         style="font-style:normal;font-variant:normal;font-weight:normal;font-stretch:normal;font-family:JackExtraCond;-inkscape-font-specification:JackExtraCond;stroke-width:0.221094"
         d="m 149.41271,41.504906 h 2.66004 v -0.975924 h -1.51138 v -1.710026 h 1.07092 v -1.027743 h -1.07092 v -1.606388 h 1.45093 v -0.975924 h -2.59959 z" />
      <path
         id="path1579"
         style="font-style:normal;font-variant:normal;font-weight:normal;font-stretch:normal;font-family:JackExtraCond;-inkscape-font-specification:JackExtraCond;stroke-width:0.221094"
         d="m 153.6705,36.184825 q 0.39728,0.0086 0.5441,0.155457 0.21591,0.250459 0.21591,2.012303 0,1.485477 -0.10364,1.805028 -0.12091,0.371369 -0.65637,0.380005 z m -1.14866,5.320081 h 1.1832 q 1.21775,0 1.6323,-0.889559 0.30228,-0.647737 0.30228,-2.254125 0,-1.658207 -0.33683,-2.288671 -0.44909,-0.86365 -1.77911,-0.86365 h -1.00184 z" />
      <path
         id="path1581"
         style="font-style:normal;font-variant:normal;font-weight:normal;font-stretch:normal;font-family:JackExtraCond;-inkscape-font-specification:JackExtraCond;stroke-width:0.221094"
         d="m 155.96781,41.504906 h 0.96729 l 0.15545,-1.399112 h 0.93275 l 0.17273,1.399112 h 1.09683 l -0.77728,-6.296005 h -1.65821 z m 1.96048,-2.314581 h -0.71682 l 0.36273,-3.0055 h 0.0173 l 0.33682,3.0055 z" />
      <path
         id="path1583"
         style="font-style:normal;font-variant:normal;font-weight:normal;font-stretch:normal;font-family:JackExtraCond;-inkscape-font-specification:JackExtraCond;stroke-width:0.221094"
         d="m 159.72468,41.504906 h 1.14865 v -2.703223 h 0.27637 l 0.53546,2.703223 h 1.15729 l -0.67364,-2.970954 q 0.67364,-0.397279 0.67364,-1.537296 0,-1.787755 -1.8223,-1.787755 h -1.29547 z m 1.14865,-5.3719 h 0.18137 q 0.6391,0 0.6391,0.872286 0,0.872286 -0.58728,0.872286 h -0.23319 z" />
      <path
         id="path1585"
         style="font-style:normal;font-variant:normal;font-weight:normal;font-stretch:normal;font-family:JackExtraCond;-inkscape-font-specification:JackExtraCond;stroke-width:0.221094"
         d="m 163.33474,41.504906 h 1.14865 v -1.830937 l 0.41456,-0.98456 h 0.0173 l 0.6391,2.815497 h 1.10547 l -1.03638,-4.180063 0.86365,-2.115942 h -1.03638 l -0.96729,2.634131 v -2.634131 h -1.14865 v 6.296005 z" />
      <path
         id="path1587"
         style="font-style:normal;font-variant:normal;font-weight:normal;font-stretch:normal;font-family:JackExtraCond;-inkscape-font-specification:JackExtraCond;stroke-width:0.221094"
         d="m 166.85844,39.682605 q 0,1.951848 1.47684,1.951848 0.74273,0 1.1832,-0.509553 0.40591,-0.466371 0.40591,-1.226382 0,-0.785921 -0.5441,-1.425022 -0.0605,-0.06909 -1.01047,-0.924105 -0.53546,-0.49228 -0.53546,-0.915468 0,-0.570009 0.43182,-0.570009 0.46638,0 0.46638,0.941378 h 1.0191 q -0.0432,-1.917301 -1.45957,-1.917301 -0.71683,0 -1.1141,0.509553 -0.37137,0.46637 -0.37137,1.200472 0,0.811831 0.5441,1.425022 l 1.00183,0.898195 q 0.5441,0.475007 0.5441,0.924105 0,0.250459 -0.13819,0.431825 -0.12954,0.181366 -0.38,0.181366 -0.49228,0 -0.49228,-0.975924 z" />
      <path
         id="path1589"
         style="font-style:normal;font-variant:normal;font-weight:normal;font-stretch:normal;font-family:JackExtraCond;-inkscape-font-specification:JackExtraCond;stroke-width:0.221094"
         d="m 170.4253,41.504906 h 1.14865 v -6.296005 h -1.14865 z" />
      <path
         id="path1591"
         style="font-style:normal;font-variant:normal;font-weight:normal;font-stretch:normal;font-family:JackExtraCond;-inkscape-font-specification:JackExtraCond;stroke-width:0.221094"
         d="m 173.44807,36.184825 q 0.39728,0.0086 0.5441,0.155457 0.21591,0.250459 0.21591,2.012303 0,1.485477 -0.10364,1.805028 -0.12091,0.371369 -0.65637,0.380005 z m -1.14865,5.320081 h 1.1832 q 1.21774,0 1.63229,-0.889559 0.30228,-0.647737 0.30228,-2.254125 0,-1.658207 -0.33682,-2.288671 -0.4491,-0.86365 -1.77912,-0.86365 h -1.00183 z" />
      <path
         id="path1593"
         style="font-style:normal;font-variant:normal;font-weight:normal;font-stretch:normal;font-family:JackExtraCond;-inkscape-font-specification:JackExtraCond;stroke-width:0.221094"
         d="m 176.62631,38.723955 q 0.56137,0 0.77728,0.224548 0.20728,0.224549 0.20728,0.794558 0,0.98456 -0.48365,0.98456 -0.38864,0 -0.41455,-0.760011 l -0.97592,0.06045 q 0.009,0.682283 0.33682,1.096835 0.36273,0.449098 1.02774,0.449098 0.8032,0 1.23502,-0.475008 0.42319,-0.475007 0.42319,-1.295474 0,-1.312747 -1.03638,-1.580478 v -0.01727 q 0.87229,-0.336823 0.87229,-1.50275 0,-0.66501 -0.32819,-1.088198 -0.36273,-0.475008 -0.9932,-0.475008 -0.64773,0 -1.0191,0.440462 -0.33683,0.397278 -0.38865,1.070925 l 0.8982,0.08637 q 0.0345,-0.751375 0.39728,-0.751375 0.40591,0 0.40591,0.777284 0,1.157291 -0.94137,1.114108 v 0.846377 z" />
      <path
         id="path1595"
         style="font-style:normal;font-variant:normal;font-weight:normal;font-stretch:normal;font-family:JackExtraCond;-inkscape-font-specification:JackExtraCond;stroke-width:0.221094"
         d="m 179.17406,41.504906 h 1.14866 v -2.703223 h 0.27637 l 0.53546,2.703223 h 1.15729 l -0.67365,-2.970954 q 0.67365,-0.397279 0.67365,-1.537296 0,-1.787755 -1.8223,-1.787755 h -1.29548 z m 1.14866,-5.3719 h 0.18136 q 0.63911,0 0.63911,0.872286 0,0.872286 -0.58729,0.872286 h -0.23318 z" />
      <path
         id="path1597"
         style="font-style:normal;font-variant:normal;font-weight:normal;font-stretch:normal;font-family:JackExtraCond;-inkscape-font-specification:JackExtraCond;stroke-width:0.221094"
         d="m 184.51142,41.504906 h 2.61686 v -0.975924 h -1.46821 v -5.320081 h -1.14865 z" />
      <path
         id="path1599"
         style="font-style:normal;font-variant:normal;font-weight:normal;font-stretch:normal;font-family:JackExtraCond;-inkscape-font-specification:JackExtraCond;stroke-width:0.221094"
         d="m 187.66375,41.504906 h 1.14865 v -6.296005 h -1.14865 z" />
      <path
         id="path1601"
         style="font-style:normal;font-variant:normal;font-weight:normal;font-stretch:normal;font-family:JackExtraCond;-inkscape-font-specification:JackExtraCond;stroke-width:0.221094"
         d="m 189.49468,41.504906 h 0.97593 v -3.808694 l 0.0259,-0.0086 1.26092,3.817331 h 0.85502 v -6.296005 h -0.92411 v 3.325051 l -1.07092,-3.325051 h -1.12275 v 6.296005 z" />
      <path
         id="path1603"
         style="font-style:normal;font-variant:normal;font-weight:normal;font-stretch:normal;font-family:JackExtraCond;-inkscape-font-specification:JackExtraCond;stroke-width:0.221094"
         d="m 193.30337,41.504906 h 2.66004 v -0.975924 h -1.51139 v -1.710026 h 1.07093 v -1.027743 h -1.07093 v -1.606388 h 1.45093 v -0.975924 h -2.59958 z" />
      <path
         id="path1605"
         style="font-style:normal;font-variant:normal;font-weight:normal;font-stretch:normal;font-family:JackExtraCond;-inkscape-font-specification:JackExtraCond;stroke-width:0.221094"
         d="m 204.47036,36.184825 q 0.39728,0.0086 0.5441,0.155457 0.21591,0.250459 0.21591,2.012303 0,1.485477 -0.10363,1.805028 -0.12092,0.371369 -0.65638,0.380005 z m -1.14865,5.320081 h 1.1832 q 1.21774,0 1.6323,-0.889559 0.30227,-0.647737 0.30227,-2.254125 0,-1.658207 -0.33682,-2.288671 -0.4491,-0.86365 -1.77912,-0.86365 h -1.00183 z" />
      <path
         id="path1607"
         style="font-style:normal;font-variant:normal;font-weight:normal;font-stretch:normal;font-family:JackExtraCond;-inkscape-font-specification:JackExtraCond;stroke-width:0.221094"
         d="m 208.17543,37.696212 q 0,-0.69092 0.0259,-0.915469 0.095,-0.716829 0.39728,-0.716829 0.31092,0 0.39728,0.716829 0.0259,0.224549 0.0259,0.915469 v 1.321383 q 0,0.69092 -0.0259,0.924105 -0.0864,0.716829 -0.39728,0.716829 -0.30227,0 -0.39728,-0.716829 -0.0259,-0.233185 -0.0259,-0.924105 z m -1.2523,0.66501 q 0,3.273231 1.67548,3.273231 1.68412,0 1.68412,-3.273231 0,-3.273231 -1.68412,-3.273231 -1.67548,0 -1.67548,3.273231 z" />
      <path
         id="path1609"
         style="font-style:normal;font-variant:normal;font-weight:normal;font-stretch:normal;font-family:JackExtraCond;-inkscape-font-specification:JackExtraCond;stroke-width:0.221094"
         d="m 212.53684,41.504906 h 0.97593 v -3.808694 l 0.0259,-0.0086 1.26092,3.817331 h 0.85502 v -6.296005 h -0.92411 v 3.325051 l -1.07092,-3.325051 h -1.12275 v 6.296005 z" />
    </g>
    <rect
       transform="rotate(-3.2019676)"
       style="fill:#ffff00;fill-opacity:1;stroke:none;stroke-width:2.17165;stroke-linecap:round;stroke-linejoin:round;stroke-miterlimit:4;stroke-dasharray:none;paint-order:stroke fill markers"
       id="rect1439-5"
       width="214.15396"
       height="9.3279362"
       x="-7.8819008"
       y="65.525597"
       ry="0" />
    <g
       style="font-size:8.84378px;line-height:1.25;font-family:'Ostrich Sans';-inkscape-font-specification:'Ostrich Sans';stroke-width:0.221094"
       id="text3365-5"
       transform="rotate(-3.2019676,-474.37866,24.636458)"
       aria-label="O NOT CROSS               THEDARKSID3R LINE    DO NOT CROSS               UNDER C">
      <path
         id="path1612"
         style="font-style:normal;font-variant:normal;font-weight:normal;font-stretch:normal;font-family:JackExtraCond;-inkscape-font-specification:JackExtraCond;stroke-width:0.221094"
         d="m -5.3698024,95.98981 q 0,-0.690921 0.02591,-0.91547 0.095002,-0.71683 0.3972792,-0.71683 0.3109141,0 0.3972792,0.71683 0.02591,0.224549 0.02591,0.91547 v 1.321385 q 0,0.69092 -0.02591,0.924106 -0.086365,0.716829 -0.3972792,0.716829 -0.3022776,0 -0.3972792,-0.716829 -0.02591,-0.233186 -0.02591,-0.924106 z m -1.252293,0.66501 q 0,3.273235 1.6754817,3.273235 1.6841182,0 1.6841182,-3.273235 0,-3.273234 -1.6841182,-3.273234 -1.6754817,0 -1.6754817,3.273234 z" />
      <path
         id="path1614"
         style="font-style:normal;font-variant:normal;font-weight:normal;font-stretch:normal;font-family:JackExtraCond;-inkscape-font-specification:JackExtraCond;stroke-width:0.221094"
         d="m -1.0083683,99.798508 h 0.97592484 V 95.98981 l 0.02590952,-0.0086 1.26092954,3.817335 H 2.1094094 V 93.502497 H 1.1853035 V 96.82755 L 0.1143771,93.502497 h -1.1227454 z" />
      <path
         id="path1616"
         style="font-style:normal;font-variant:normal;font-weight:normal;font-stretch:normal;font-family:JackExtraCond;-inkscape-font-specification:JackExtraCond;stroke-width:0.221094"
         d="m 3.8885289,95.98981 q 0,-0.690921 0.02591,-0.91547 0.095002,-0.71683 0.3972792,-0.71683 0.3109141,0 0.3972792,0.71683 0.025909,0.224549 0.025909,0.91547 v 1.321385 q 0,0.69092 -0.025909,0.924106 -0.086365,0.716829 -0.3972792,0.716829 -0.3022776,0 -0.3972792,-0.716829 -0.02591,-0.233186 -0.02591,-0.924106 z m -1.252293,0.66501 q 0,3.273235 1.6754817,3.273235 1.6841182,0 1.6841182,-3.273235 0,-3.273234 -1.6841182,-3.273234 -1.6754817,0 -1.6754817,3.273234 z" />
      <path
         id="path1618"
         style="font-style:normal;font-variant:normal;font-weight:normal;font-stretch:normal;font-family:JackExtraCond;-inkscape-font-specification:JackExtraCond;stroke-width:0.221094"
         d="m 7.3690406,99.798508 h 1.148655 V 94.478422 H 9.502257 V 93.502497 H 6.3758427 v 0.975925 h 0.9931979 z" />
      <path
         id="path1620"
         style="font-style:normal;font-variant:normal;font-weight:normal;font-stretch:normal;font-family:JackExtraCond;-inkscape-font-specification:JackExtraCond;stroke-width:0.221094"
         d="m 14.761887,95.747988 q 0,-1.06229 -0.233185,-1.589117 -0.34546,-0.777285 -1.252293,-0.777285 -1.640936,0 -1.640936,3.273234 0,1.330022 0.224549,2.055488 0.380006,1.217747 1.416387,1.217747 0.915469,0 1.260929,-0.820468 0.241822,-0.535463 0.241822,-1.606389 l -0.975925,-0.04318 q -0.0086,0.604555 -0.05182,0.855014 -0.112274,0.639101 -0.431825,0.639101 -0.285004,0 -0.371369,-0.371369 -0.103639,-0.449098 -0.103639,-1.925941 0,-0.975924 0.02591,-1.269566 0.095,-1.027744 0.449098,-1.027744 0.414552,0 0.414552,1.425024 l 1.027744,-0.03455 z" />
      <path
         id="path1622"
         style="font-style:normal;font-variant:normal;font-weight:normal;font-stretch:normal;font-family:JackExtraCond;-inkscape-font-specification:JackExtraCond;stroke-width:0.221094"
         d="m 15.409624,99.798508 h 1.148655 v -2.703226 h 0.276368 l 0.535464,2.703226 h 1.157291 L 17.853755,96.82755 q 0.673647,-0.397279 0.673647,-1.537297 0,-1.787756 -1.822302,-1.787756 h -1.295476 z m 1.148655,-5.371905 h 0.181367 q 0.639101,0 0.639101,0.872286 0,0.872287 -0.587282,0.872287 h -0.233186 z" />
      <path
         id="path1624"
         style="font-style:normal;font-variant:normal;font-weight:normal;font-stretch:normal;font-family:JackExtraCond;-inkscape-font-specification:JackExtraCond;stroke-width:0.221094"
         d="m 20.107884,95.98981 q 0,-0.690921 0.02591,-0.91547 0.095,-0.71683 0.397279,-0.71683 0.310914,0 0.397279,0.71683 0.02591,0.224549 0.02591,0.91547 v 1.321385 q 0,0.69092 -0.02591,0.924106 -0.08637,0.716829 -0.397279,0.716829 -0.302277,0 -0.397279,-0.716829 -0.02591,-0.233186 -0.02591,-0.924106 z m -1.252293,0.66501 q 0,3.273235 1.675481,3.273235 1.684118,0 1.684118,-3.273235 0,-3.273234 -1.684118,-3.273234 -1.675481,0 -1.675481,3.273234 z" />
      <path
         id="path1626"
         style="font-style:normal;font-variant:normal;font-weight:normal;font-stretch:normal;font-family:JackExtraCond;-inkscape-font-specification:JackExtraCond;stroke-width:0.221094"
         d="m 22.543376,97.976205 q 0,1.95185 1.476842,1.95185 0.74274,0 1.183201,-0.509553 0.405916,-0.466372 0.405916,-1.226384 0,-0.785922 -0.5441,-1.425023 -0.06046,-0.06909 -1.01047,-0.924106 -0.535464,-0.492281 -0.535464,-0.915469 0,-0.57001 0.431825,-0.57001 0.466372,0 0.466372,0.941379 h 1.019107 q -0.04318,-1.917303 -1.459569,-1.917303 -0.71683,0 -1.114109,0.509553 -0.37137,0.466371 -0.37137,1.200474 0,0.811832 0.5441,1.425023 l 1.001835,0.898197 q 0.544099,0.475007 0.544099,0.924106 0,0.250458 -0.138184,0.431825 -0.129547,0.181366 -0.380006,0.181366 -0.492281,0 -0.492281,-0.975925 z" />
      <path
         id="path1628"
         style="font-style:normal;font-variant:normal;font-weight:normal;font-stretch:normal;font-family:JackExtraCond;-inkscape-font-specification:JackExtraCond;stroke-width:0.221094"
         d="m 25.82525,97.976205 q 0,1.95185 1.476842,1.95185 0.742739,0 1.183201,-0.509553 0.405916,-0.466372 0.405916,-1.226384 0,-0.785922 -0.5441,-1.425023 -0.06046,-0.06909 -1.010471,-0.924106 -0.535463,-0.492281 -0.535463,-0.915469 0,-0.57001 0.431825,-0.57001 0.466371,0 0.466371,0.941379 h 1.019108 q -0.04318,-1.917303 -1.459569,-1.917303 -0.71683,0 -1.114109,0.509553 -0.37137,0.466371 -0.37137,1.200474 0,0.811832 0.5441,1.425023 l 1.001834,0.898197 q 0.5441,0.475007 0.5441,0.924106 0,0.250458 -0.138184,0.431825 -0.129548,0.181366 -0.380006,0.181366 -0.492281,0 -0.492281,-0.975925 z" />
      <path
         id="path1630"
         style="font-style:normal;font-variant:normal;font-weight:normal;font-stretch:normal;font-family:JackExtraCond;-inkscape-font-specification:JackExtraCond;stroke-width:0.221094"
         d="m 56.061647,99.798508 h 1.148655 v -5.320086 h 0.984561 v -0.975925 h -3.126414 v 0.975925 h 0.993198 z" />
      <path
         id="path1632"
         style="font-style:normal;font-variant:normal;font-weight:normal;font-stretch:normal;font-family:JackExtraCond;-inkscape-font-specification:JackExtraCond;stroke-width:0.221094"
         d="m 58.764868,99.798508 h 1.148655 v -2.66868 h 0.725466 v 2.66868 h 1.148655 v -6.296011 h -1.148655 v 2.530495 h -0.725466 v -2.530495 h -1.148655 z" />
      <path
         id="path1634"
         style="font-style:normal;font-variant:normal;font-weight:normal;font-stretch:normal;font-family:JackExtraCond;-inkscape-font-specification:JackExtraCond;stroke-width:0.221094"
         d="m 62.530386,99.798508 h 2.660043 v -0.975925 h -1.511388 v -1.710028 h 1.070927 v -1.027744 h -1.070927 v -1.606389 h 1.450933 v -0.975925 h -2.599588 z" />
      <path
         id="path1636"
         style="font-style:normal;font-variant:normal;font-weight:normal;font-stretch:normal;font-family:JackExtraCond;-inkscape-font-specification:JackExtraCond;stroke-width:0.221094"
         d="m 66.788187,94.478422 q 0.397279,0.0086 0.5441,0.155457 0.215913,0.250458 0.215913,2.012305 0,1.485479 -0.103638,1.805029 -0.120911,0.37137 -0.656375,0.380006 z m -1.148655,5.320086 h 1.183201 q 1.217747,0 1.6323,-0.88956 0.302277,-0.647738 0.302277,-2.254128 0,-1.658208 -0.336824,-2.288673 -0.449098,-0.86365 -1.779119,-0.86365 h -1.001835 z" />
      <path
         id="path1638"
         style="font-style:normal;font-variant:normal;font-weight:normal;font-stretch:normal;font-family:JackExtraCond;-inkscape-font-specification:JackExtraCond;stroke-width:0.221094"
         d="m 69.085492,99.798508 h 0.967289 l 0.155457,-1.399114 h 0.932742 l 0.17273,1.399114 h 1.096836 l -0.777285,-6.296011 h -1.658209 z m 1.960487,-2.314583 h -0.71683 l 0.362733,-3.005503 h 0.01727 l 0.336824,3.005503 z" />
      <path
         id="path1640"
         style="font-style:normal;font-variant:normal;font-weight:normal;font-stretch:normal;font-family:JackExtraCond;-inkscape-font-specification:JackExtraCond;stroke-width:0.221094"
         d="m 72.842375,99.798508 h 1.148655 v -2.703226 h 0.276368 l 0.535463,2.703226 h 1.157292 L 75.286506,96.82755 q 0.673647,-0.397279 0.673647,-1.537297 0,-1.787756 -1.822302,-1.787756 h -1.295476 z m 1.148655,-5.371905 h 0.181367 q 0.639101,0 0.639101,0.872286 0,0.872287 -0.587282,0.872287 H 73.99103 Z" />
      <path
         id="path1642"
         style="font-style:normal;font-variant:normal;font-weight:normal;font-stretch:normal;font-family:JackExtraCond;-inkscape-font-specification:JackExtraCond;stroke-width:0.221094"
         d="m 76.452429,99.798508 h 1.148655 v -1.830939 l 0.414552,-0.984561 h 0.01727 l 0.639101,2.8155 H 79.77748 L 78.7411,95.61844 79.60475,93.502497 h -1.036381 l -0.967288,2.634133 v -2.634133 h -1.148655 v 6.296011 z" />
      <path
         id="path1644"
         style="font-style:normal;font-variant:normal;font-weight:normal;font-stretch:normal;font-family:JackExtraCond;-inkscape-font-specification:JackExtraCond;stroke-width:0.221094"
         d="m 79.976125,97.976205 q 0,1.95185 1.476842,1.95185 0.74274,0 1.183201,-0.509553 0.405916,-0.466372 0.405916,-1.226384 0,-0.785922 -0.5441,-1.425023 -0.06046,-0.06909 -1.010471,-0.924106 -0.535463,-0.492281 -0.535463,-0.915469 0,-0.57001 0.431825,-0.57001 0.466371,0 0.466371,0.941379 h 1.019108 q -0.04318,-1.917303 -1.459569,-1.917303 -0.71683,0 -1.114109,0.509553 -0.37137,0.466371 -0.37137,1.200474 0,0.811832 0.5441,1.425023 l 1.001834,0.898197 q 0.5441,0.475007 0.5441,0.924106 0,0.250458 -0.138184,0.431825 -0.129548,0.181366 -0.380006,0.181366 -0.492281,0 -0.492281,-0.975925 z" />
      <path
         id="path1646"
         style="font-style:normal;font-variant:normal;font-weight:normal;font-stretch:normal;font-family:JackExtraCond;-inkscape-font-specification:JackExtraCond;stroke-width:0.221094"
         d="m 83.542998,99.798508 h 1.148655 v -6.296011 h -1.148655 z" />
      <path
         id="path1648"
         style="font-style:normal;font-variant:normal;font-weight:normal;font-stretch:normal;font-family:JackExtraCond;-inkscape-font-specification:JackExtraCond;stroke-width:0.221094"
         d="m 86.565775,94.478422 q 0.397279,0.0086 0.5441,0.155457 0.215913,0.250458 0.215913,2.012305 0,1.485479 -0.103639,1.805029 -0.120911,0.37137 -0.656374,0.380006 z m -1.148655,5.320086 h 1.183201 q 1.217747,0 1.632299,-0.88956 0.302278,-0.647738 0.302278,-2.254128 0,-1.658208 -0.336824,-2.288673 -0.449098,-0.86365 -1.779119,-0.86365 H 85.41712 Z" />
      <path
         id="path1650"
         style="font-style:normal;font-variant:normal;font-weight:normal;font-stretch:normal;font-family:JackExtraCond;-inkscape-font-specification:JackExtraCond;stroke-width:0.221094"
         d="m 89.744011,97.017554 q 0.561373,0 0.777285,0.224549 0.207277,0.224549 0.207277,0.794558 0,0.984561 -0.483645,0.984561 -0.388642,0 -0.414552,-0.760012 l -0.975925,0.06046 q 0.0086,0.682283 0.336824,1.096836 0.362733,0.449098 1.027744,0.449098 0.803195,0 1.23502,-0.475008 0.423189,-0.475008 0.423189,-1.295475 0,-1.312749 -1.036381,-1.580481 v -0.01727 q 0.872287,-0.336823 0.872287,-1.502751 0,-0.665011 -0.328187,-1.0882 -0.362733,-0.475007 -0.993198,-0.475007 -0.647738,0 -1.019107,0.440461 -0.336824,0.397279 -0.388643,1.070927 l 0.898196,0.08637 q 0.03455,-0.751376 0.397279,-0.751376 0.405916,0 0.405916,0.777285 0,1.157292 -0.941379,1.114109 v 0.846378 z" />
      <path
         id="path1652"
         style="font-style:normal;font-variant:normal;font-weight:normal;font-stretch:normal;font-family:JackExtraCond;-inkscape-font-specification:JackExtraCond;stroke-width:0.221094"
         d="m 92.291777,99.798508 h 1.148655 V 97.095282 H 93.7168 l 0.535463,2.703226 h 1.157292 L 94.735907,96.82755 q 0.673648,-0.397279 0.673648,-1.537297 0,-1.787756 -1.822303,-1.787756 h -1.295475 z m 1.148655,-5.371905 h 0.181366 q 0.639102,0 0.639102,0.872286 0,0.872287 -0.587282,0.872287 h -0.233186 z" />
      <path
         id="path1654"
         style="font-style:normal;font-variant:normal;font-weight:normal;font-stretch:normal;font-family:JackExtraCond;-inkscape-font-specification:JackExtraCond;stroke-width:0.221094"
         d="M 97.629141,99.798508 H 100.246 v -0.975925 h -1.468204 v -5.320086 h -1.148655 z" />
      <path
         id="path1656"
         style="font-style:normal;font-variant:normal;font-weight:normal;font-stretch:normal;font-family:JackExtraCond;-inkscape-font-specification:JackExtraCond;stroke-width:0.221094"
         d="m 100.78146,99.798508 h 1.14866 v -6.296011 h -1.14866 z" />
      <path
         id="path1658"
         style="font-style:normal;font-variant:normal;font-weight:normal;font-stretch:normal;font-family:JackExtraCond;-inkscape-font-specification:JackExtraCond;stroke-width:0.221094"
         d="m 102.6124,99.798508 h 0.97593 V 95.98981 l 0.0259,-0.0086 1.26093,3.817335 h 0.85501 v -6.296011 h -0.92411 v 3.325053 l -1.07092,-3.325053 h -1.12275 v 6.296011 z" />
      <path
         id="path1660"
         style="font-style:normal;font-variant:normal;font-weight:normal;font-stretch:normal;font-family:JackExtraCond;-inkscape-font-specification:JackExtraCond;stroke-width:0.221094"
         d="m 106.4211,99.798508 h 2.66004 v -0.975925 h -1.51139 v -1.710028 h 1.07093 v -1.027744 h -1.07093 v -1.606389 h 1.45093 v -0.975925 h -2.59958 z" />
      <path
         id="path1662"
         style="font-style:normal;font-variant:normal;font-weight:normal;font-stretch:normal;font-family:JackExtraCond;-inkscape-font-specification:JackExtraCond;stroke-width:0.221094"
         d="m 117.5881,94.478422 q 0.39728,0.0086 0.5441,0.155457 0.21591,0.250458 0.21591,2.012305 0,1.485479 -0.10364,1.805029 -0.12091,0.37137 -0.65637,0.380006 z m -1.14866,5.320086 h 1.1832 q 1.21775,0 1.6323,-0.88956 0.30228,-0.647738 0.30228,-2.254128 0,-1.658208 -0.33682,-2.288673 -0.4491,-0.86365 -1.77912,-0.86365 h -1.00184 z" />
      <path
         id="path1664"
         style="font-style:normal;font-variant:normal;font-weight:normal;font-stretch:normal;font-family:JackExtraCond;-inkscape-font-specification:JackExtraCond;stroke-width:0.221094"
         d="m 121.29316,95.98981 q 0,-0.690921 0.0259,-0.91547 0.095,-0.71683 0.39728,-0.71683 0.31091,0 0.39728,0.71683 0.0259,0.224549 0.0259,0.91547 v 1.321385 q 0,0.69092 -0.0259,0.924106 -0.0864,0.716829 -0.39728,0.716829 -0.30228,0 -0.39728,-0.716829 -0.0259,-0.233186 -0.0259,-0.924106 z m -1.25229,0.66501 q 0,3.273235 1.67548,3.273235 1.68412,0 1.68412,-3.273235 0,-3.273234 -1.68412,-3.273234 -1.67548,0 -1.67548,3.273234 z" />
      <path
         id="path1666"
         style="font-style:normal;font-variant:normal;font-weight:normal;font-stretch:normal;font-family:JackExtraCond;-inkscape-font-specification:JackExtraCond;stroke-width:0.221094"
         d="m 125.65459,99.798508 h 0.97593 V 95.98981 l 0.0259,-0.0086 1.26093,3.817335 h 0.85501 v -6.296011 h -0.92411 v 3.325053 l -1.07092,-3.325053 h -1.12275 v 6.296011 z" />
      <path
         id="path1668"
         style="font-style:normal;font-variant:normal;font-weight:normal;font-stretch:normal;font-family:JackExtraCond;-inkscape-font-specification:JackExtraCond;stroke-width:0.221094"
         d="m 130.55149,95.98981 q 0,-0.690921 0.0259,-0.91547 0.095,-0.71683 0.39728,-0.71683 0.31092,0 0.39728,0.71683 0.0259,0.224549 0.0259,0.91547 v 1.321385 q 0,0.69092 -0.0259,0.924106 -0.0864,0.716829 -0.39728,0.716829 -0.30228,0 -0.39728,-0.716829 -0.0259,-0.233186 -0.0259,-0.924106 z m -1.25229,0.66501 q 0,3.273235 1.67548,3.273235 1.68412,0 1.68412,-3.273235 0,-3.273234 -1.68412,-3.273234 -1.67548,0 -1.67548,3.273234 z" />
      <path
         id="path1670"
         style="font-style:normal;font-variant:normal;font-weight:normal;font-stretch:normal;font-family:JackExtraCond;-inkscape-font-specification:JackExtraCond;stroke-width:0.221094"
         d="m 134.03201,99.798508 h 1.14865 v -5.320086 h 0.98456 v -0.975925 h -3.12641 v 0.975925 h 0.9932 z" />
      <path
         id="path1672"
         style="font-style:normal;font-variant:normal;font-weight:normal;font-stretch:normal;font-family:JackExtraCond;-inkscape-font-specification:JackExtraCond;stroke-width:0.221094"
         d="m 141.42485,95.747988 q 0,-1.06229 -0.23318,-1.589117 -0.34546,-0.777285 -1.2523,-0.777285 -1.64093,0 -1.64093,3.273234 0,1.330022 0.22455,2.055488 0.38,1.217747 1.41638,1.217747 0.91547,0 1.26093,-0.820468 0.24182,-0.535463 0.24182,-1.606389 l -0.97592,-0.04318 q -0.009,0.604555 -0.0518,0.855014 -0.11227,0.639101 -0.43182,0.639101 -0.28501,0 -0.37137,-0.371369 -0.10364,-0.449098 -0.10364,-1.925941 0,-0.975924 0.0259,-1.269566 0.095,-1.027744 0.4491,-1.027744 0.41455,0 0.41455,1.425024 l 1.02774,-0.03455 z" />
      <path
         id="path1674"
         style="font-style:normal;font-variant:normal;font-weight:normal;font-stretch:normal;font-family:JackExtraCond;-inkscape-font-specification:JackExtraCond;stroke-width:0.221094"
         d="m 142.07259,99.798508 h 1.14866 v -2.703226 h 0.27637 l 0.53546,2.703226 h 1.15729 l -0.67365,-2.970958 q 0.67365,-0.397279 0.67365,-1.537297 0,-1.787756 -1.8223,-1.787756 h -1.29548 z m 1.14866,-5.371905 h 0.18136 q 0.6391,0 0.6391,0.872286 0,0.872287 -0.58728,0.872287 h -0.23318 z" />
      <path
         id="path1676"
         style="font-style:normal;font-variant:normal;font-weight:normal;font-stretch:normal;font-family:JackExtraCond;-inkscape-font-specification:JackExtraCond;stroke-width:0.221094"
         d="m 146.77084,95.98981 q 0,-0.690921 0.0259,-0.91547 0.095,-0.71683 0.39728,-0.71683 0.31091,0 0.39728,0.71683 0.0259,0.224549 0.0259,0.91547 v 1.321385 q 0,0.69092 -0.0259,0.924106 -0.0864,0.716829 -0.39728,0.716829 -0.30228,0 -0.39728,-0.716829 -0.0259,-0.233186 -0.0259,-0.924106 z m -1.2523,0.66501 q 0,3.273235 1.67549,3.273235 1.68411,0 1.68411,-3.273235 0,-3.273234 -1.68411,-3.273234 -1.67549,0 -1.67549,3.273234 z" />
      <path
         id="path1678"
         style="font-style:normal;font-variant:normal;font-weight:normal;font-stretch:normal;font-family:JackExtraCond;-inkscape-font-specification:JackExtraCond;stroke-width:0.221094"
         d="m 149.20633,97.976205 q 0,1.95185 1.47685,1.95185 0.74274,0 1.1832,-0.509553 0.40591,-0.466372 0.40591,-1.226384 0,-0.785922 -0.5441,-1.425023 -0.0605,-0.06909 -1.01047,-0.924106 -0.53546,-0.492281 -0.53546,-0.915469 0,-0.57001 0.43182,-0.57001 0.46638,0 0.46638,0.941379 h 1.0191 q -0.0432,-1.917303 -1.45957,-1.917303 -0.71683,0 -1.1141,0.509553 -0.37137,0.466371 -0.37137,1.200474 0,0.811832 0.5441,1.425023 l 1.00183,0.898197 q 0.5441,0.475007 0.5441,0.924106 0,0.250458 -0.13818,0.431825 -0.12955,0.181366 -0.38001,0.181366 -0.49228,0 -0.49228,-0.975925 z" />
      <path
         id="path1680"
         style="font-style:normal;font-variant:normal;font-weight:normal;font-stretch:normal;font-family:JackExtraCond;-inkscape-font-specification:JackExtraCond;stroke-width:0.221094"
         d="m 152.48821,97.976205 q 0,1.95185 1.47684,1.95185 0.74274,0 1.1832,-0.509553 0.40592,-0.466372 0.40592,-1.226384 0,-0.785922 -0.5441,-1.425023 -0.0605,-0.06909 -1.01047,-0.924106 -0.53546,-0.492281 -0.53546,-0.915469 0,-0.57001 0.43182,-0.57001 0.46637,0 0.46637,0.941379 h 1.01911 q -0.0432,-1.917303 -1.45957,-1.917303 -0.71683,0 -1.11411,0.509553 -0.37137,0.466371 -0.37137,1.200474 0,0.811832 0.5441,1.425023 l 1.00184,0.898197 q 0.54409,0.475007 0.54409,0.924106 0,0.250458 -0.13818,0.431825 -0.12955,0.181366 -0.38001,0.181366 -0.49228,0 -0.49228,-0.975925 z" />
      <path
         id="path1682"
         style="font-style:normal;font-variant:normal;font-weight:normal;font-stretch:normal;font-family:JackExtraCond;-inkscape-font-specification:JackExtraCond;stroke-width:0.221094"
         d="m 181.87823,98.226664 q 0,1.701391 1.47684,1.701391 1.4682,0 1.4682,-1.701391 v -4.724167 h -0.96729 v 4.870988 q 0,0.578645 -0.43182,0.578645 -0.39728,0 -0.39728,-0.578645 v -4.870988 h -1.14865 z" />
      <path
         id="path1684"
         style="font-style:normal;font-variant:normal;font-weight:normal;font-stretch:normal;font-family:JackExtraCond;-inkscape-font-specification:JackExtraCond;stroke-width:0.221094"
         d="m 185.48829,99.798508 h 0.97592 V 95.98981 l 0.0259,-0.0086 1.26093,3.817335 h 0.85501 v -6.296011 h -0.9241 v 3.325053 l -1.07093,-3.325053 h -1.12274 v 6.296011 z" />
      <path
         id="path1686"
         style="font-style:normal;font-variant:normal;font-weight:normal;font-stretch:normal;font-family:JackExtraCond;-inkscape-font-specification:JackExtraCond;stroke-width:0.221094"
         d="m 190.44564,94.478422 q 0.39728,0.0086 0.5441,0.155457 0.21592,0.250458 0.21592,2.012305 0,1.485479 -0.10364,1.805029 -0.12091,0.37137 -0.65638,0.380006 z m -1.14865,5.320086 h 1.1832 q 1.21775,0 1.6323,-0.88956 0.30228,-0.647738 0.30228,-2.254128 0,-1.658208 -0.33683,-2.288673 -0.4491,-0.86365 -1.77912,-0.86365 h -1.00183 z" />
      <path
         id="path1688"
         style="font-style:normal;font-variant:normal;font-weight:normal;font-stretch:normal;font-family:JackExtraCond;-inkscape-font-specification:JackExtraCond;stroke-width:0.221094"
         d="m 193.06251,99.798508 h 2.66004 v -0.975925 h -1.51139 v -1.710028 h 1.07093 v -1.027744 h -1.07093 v -1.606389 h 1.45093 v -0.975925 h -2.59958 z" />
      <path
         id="path1690"
         style="font-style:normal;font-variant:normal;font-weight:normal;font-stretch:normal;font-family:JackExtraCond;-inkscape-font-specification:JackExtraCond;stroke-width:0.221094"
         d="m 196.17164,99.798508 h 1.14865 v -2.703226 h 0.27637 l 0.53546,2.703226 h 1.15729 l -0.67364,-2.970958 q 0.67364,-0.397279 0.67364,-1.537297 0,-1.787756 -1.8223,-1.787756 h -1.29547 z m 1.14865,-5.371905 h 0.18137 q 0.6391,0 0.6391,0.872286 0,0.872287 -0.58728,0.872287 h -0.23319 z" />
      <path
         id="path1692"
         style="font-style:normal;font-variant:normal;font-weight:normal;font-stretch:normal;font-family:JackExtraCond;-inkscape-font-specification:JackExtraCond;stroke-width:0.221094"
         d="m 204.47133,95.747988 q 0,-1.06229 -0.23319,-1.589117 -0.34546,-0.777285 -1.25229,-0.777285 -1.64093,0 -1.64093,3.273234 0,1.330022 0.22454,2.055488 0.38001,1.217747 1.41639,1.217747 0.91547,0 1.26093,-0.820468 0.24182,-0.535463 0.24182,-1.606389 l -0.97592,-0.04318 q -0.009,0.604555 -0.0518,0.855014 -0.11228,0.639101 -0.43183,0.639101 -0.285,0 -0.37137,-0.371369 -0.10363,-0.449098 -0.10363,-1.925941 0,-0.975924 0.0259,-1.269566 0.095,-1.027744 0.44909,-1.027744 0.41456,0 0.41456,1.425024 l 1.02774,-0.03455 z" />
    </g>
    <rect
       ry="0"
       y="91.048706"
       x="1.4491661"
       height="9.3279362"
       width="214.15396"
       id="rect1439-5-5"
       style="fill:#ffff00;fill-opacity:1;stroke:none;stroke-width:2.17165;stroke-linecap:round;stroke-linejoin:round;stroke-miterlimit:4;stroke-dasharray:none;paint-order:stroke fill markers"
       transform="rotate(3.2300916)" />
    <g
       style="font-size:8.84378px;line-height:1.25;font-family:'Ostrich Sans';-inkscape-font-specification:'Ostrich Sans';stroke-width:0.221094"
       id="text3365-5-2"
       transform="rotate(3.2300916,468.13868,-50.764926)"
       aria-label="ID3R LINE    DO NOT CROSS               UNDER CONSTRUCTION    DO NOT CROSS">
      <path
         id="path1695"
         style="font-style:normal;font-variant:normal;font-weight:normal;font-stretch:normal;font-family:JackExtraCond;-inkscape-font-specification:JackExtraCond;stroke-width:0.221094"
         d="m 5.5215082,125.08479 h 1.1486549 v -6.29601 H 5.5215082 Z" />
      <path
         id="path1697"
         style="font-style:normal;font-variant:normal;font-weight:normal;font-stretch:normal;font-family:JackExtraCond;-inkscape-font-specification:JackExtraCond;stroke-width:0.221094"
         d="m 8.5442844,119.76471 q 0.3972792,0.009 0.5440997,0.15545 0.2159126,0.25046 0.2159126,2.01231 0,1.48548 -0.103638,1.80503 -0.1209111,0.37137 -0.6563743,0.38 z m -1.1486549,5.32008 h 1.1832009 q 1.217747,0 1.6322996,-0.88956 0.302277,-0.64773 0.302277,-2.25412 0,-1.65821 -0.336823,-2.28868 -0.4490986,-0.86365 -1.7791201,-0.86365 H 7.3956295 Z" />
      <path
         id="path1699"
         style="font-style:normal;font-variant:normal;font-weight:normal;font-stretch:normal;font-family:JackExtraCond;-inkscape-font-specification:JackExtraCond;stroke-width:0.221094"
         d="m 11.722518,122.30384 q 0.561372,0 0.777285,0.22455 0.207276,0.22455 0.207276,0.79456 0,0.98456 -0.483644,0.98456 -0.388643,0 -0.414552,-0.76001 l -0.975925,0.0605 q 0.0086,0.68228 0.336824,1.09684 0.362733,0.4491 1.027743,0.4491 0.803195,0 1.23502,-0.47501 0.423189,-0.47501 0.423189,-1.29548 0,-1.31275 -1.03638,-1.58048 v -0.0173 q 0.872287,-0.33682 0.872287,-1.50275 0,-0.66501 -0.328188,-1.0882 -0.362733,-0.47501 -0.993197,-0.47501 -0.647738,0 -1.019108,0.44046 -0.336824,0.39728 -0.388643,1.07093 l 0.898197,0.0864 q 0.03455,-0.75137 0.397279,-0.75137 0.405916,0 0.405916,0.77728 0,1.15729 -0.941379,1.11411 v 0.84638 z" />
      <path
         id="path1701"
         style="font-style:normal;font-variant:normal;font-weight:normal;font-stretch:normal;font-family:JackExtraCond;-inkscape-font-specification:JackExtraCond;stroke-width:0.221094"
         d="m 14.270286,125.08479 h 1.148655 v -2.70322 h 0.276368 l 0.535464,2.70322 h 1.157291 l -0.673647,-2.97095 q 0.673647,-0.39728 0.673647,-1.5373 0,-1.78776 -1.822302,-1.78776 h -1.295476 z m 1.148655,-5.3719 h 0.181367 q 0.639101,0 0.639101,0.87228 0,0.87229 -0.587282,0.87229 h -0.233186 z" />
      <path
         id="path1703"
         style="font-style:normal;font-variant:normal;font-weight:normal;font-stretch:normal;font-family:JackExtraCond;-inkscape-font-specification:JackExtraCond;stroke-width:0.221094"
         d="m 19.607646,125.08479 h 2.61686 v -0.97592 h -1.468205 v -5.32009 h -1.148655 z" />
      <path
         id="path1705"
         style="font-style:normal;font-variant:normal;font-weight:normal;font-stretch:normal;font-family:JackExtraCond;-inkscape-font-specification:JackExtraCond;stroke-width:0.221094"
         d="m 22.759969,125.08479 h 1.148655 v -6.29601 h -1.148655 z" />
      <path
         id="path1707"
         style="font-style:normal;font-variant:normal;font-weight:normal;font-stretch:normal;font-family:JackExtraCond;-inkscape-font-specification:JackExtraCond;stroke-width:0.221094"
         d="m 24.590909,125.08479 h 0.975925 v -3.80869 l 0.02591,-0.009 1.26093,3.81733 h 0.855013 v -6.29601 h -0.924105 v 3.32506 l -1.070927,-3.32506 H 24.59091 v 6.29601 z" />
      <path
         id="path1709"
         style="font-style:normal;font-variant:normal;font-weight:normal;font-stretch:normal;font-family:JackExtraCond;-inkscape-font-specification:JackExtraCond;stroke-width:0.221094"
         d="m 28.399606,125.08479 h 2.660043 v -0.97592 h -1.511388 v -1.71003 h 1.070926 v -1.02774 h -1.070926 v -1.60639 h 1.450932 v -0.97593 h -2.599587 z" />
      <path
         id="path1711"
         style="font-style:normal;font-variant:normal;font-weight:normal;font-stretch:normal;font-family:JackExtraCond;-inkscape-font-specification:JackExtraCond;stroke-width:0.221094"
         d="m 39.566605,119.76471 q 0.39728,0.009 0.5441,0.15545 0.215913,0.25046 0.215913,2.01231 0,1.48548 -0.103638,1.80503 -0.120911,0.37137 -0.656375,0.38 z m -1.148655,5.32008 h 1.183201 q 1.217747,0 1.6323,-0.88956 0.302277,-0.64773 0.302277,-2.25412 0,-1.65821 -0.336823,-2.28868 -0.449099,-0.86365 -1.77912,-0.86365 H 38.41795 Z" />
      <path
         id="path1713"
         style="font-style:normal;font-variant:normal;font-weight:normal;font-stretch:normal;font-family:JackExtraCond;-inkscape-font-specification:JackExtraCond;stroke-width:0.221094"
         d="m 43.271664,121.2761 q 0,-0.69093 0.02591,-0.91547 0.095,-0.71683 0.397279,-0.71683 0.310914,0 0.397279,0.71683 0.02591,0.22454 0.02591,0.91547 v 1.32138 q 0,0.69092 -0.02591,0.92411 -0.08637,0.71683 -0.397279,0.71683 -0.302278,0 -0.397279,-0.71683 -0.02591,-0.23319 -0.02591,-0.92411 z m -1.252293,0.66501 q 0,3.27323 1.675482,3.27323 1.684118,0 1.684118,-3.27323 0,-3.27324 -1.684118,-3.27324 -1.675482,0 -1.675482,3.27324 z" />
      <path
         id="path1715"
         style="font-style:normal;font-variant:normal;font-weight:normal;font-stretch:normal;font-family:JackExtraCond;-inkscape-font-specification:JackExtraCond;stroke-width:0.221094"
         d="m 47.633099,125.08479 h 0.975925 v -3.80869 l 0.02591,-0.009 1.260929,3.81733 h 0.855014 v -6.29601 h -0.924106 v 3.32506 l -1.070926,-3.32506 h -1.122746 v 6.29601 z" />
      <path
         id="path1717"
         style="font-style:normal;font-variant:normal;font-weight:normal;font-stretch:normal;font-family:JackExtraCond;-inkscape-font-specification:JackExtraCond;stroke-width:0.221094"
         d="m 52.529996,121.2761 q 0,-0.69093 0.02591,-0.91547 0.095,-0.71683 0.397279,-0.71683 0.310914,0 0.397279,0.71683 0.02591,0.22454 0.02591,0.91547 v 1.32138 q 0,0.69092 -0.02591,0.92411 -0.08637,0.71683 -0.397279,0.71683 -0.302277,0 -0.397279,-0.71683 -0.02591,-0.23319 -0.02591,-0.92411 z m -1.252293,0.66501 q 0,3.27323 1.675481,3.27323 1.684118,0 1.684118,-3.27323 0,-3.27324 -1.684118,-3.27324 -1.675481,0 -1.675481,3.27324 z" />
      <path
         id="path1719"
         style="font-style:normal;font-variant:normal;font-weight:normal;font-stretch:normal;font-family:JackExtraCond;-inkscape-font-specification:JackExtraCond;stroke-width:0.221094"
         d="m 56.010509,125.08479 h 1.148655 v -5.32008 h 0.984561 v -0.97593 h -3.126414 v 0.97593 h 0.993198 z" />
      <path
         id="path1721"
         style="font-style:normal;font-variant:normal;font-weight:normal;font-stretch:normal;font-family:JackExtraCond;-inkscape-font-specification:JackExtraCond;stroke-width:0.221094"
         d="m 63.403354,121.03427 q 0,-1.06229 -0.233186,-1.58911 -0.34546,-0.77729 -1.252293,-0.77729 -1.640935,0 -1.640935,3.27324 0,1.33002 0.224549,2.05548 0.380006,1.21775 1.416386,1.21775 0.91547,0 1.26093,-0.82047 0.241822,-0.53546 0.241822,-1.60639 l -0.975925,-0.0432 q -0.0086,0.60456 -0.05182,0.85501 -0.112275,0.63911 -0.431825,0.63911 -0.285005,0 -0.37137,-0.37137 -0.103638,-0.4491 -0.103638,-1.92594 0,-0.97593 0.02591,-1.26957 0.095,-1.02774 0.449098,-1.02774 0.414552,0 0.414552,1.42502 l 1.027744,-0.0345 z" />
      <path
         id="path1723"
         style="font-style:normal;font-variant:normal;font-weight:normal;font-stretch:normal;font-family:JackExtraCond;-inkscape-font-specification:JackExtraCond;stroke-width:0.221094"
         d="m 64.051091,125.08479 h 1.148655 v -2.70322 h 0.276368 l 0.535463,2.70322 h 1.157292 l -0.673648,-2.97095 q 0.673648,-0.39728 0.673648,-1.5373 0,-1.78776 -1.822302,-1.78776 h -1.295476 z m 1.148655,-5.3719 h 0.181367 q 0.639101,0 0.639101,0.87228 0,0.87229 -0.587282,0.87229 h -0.233186 z" />
      <path
         id="path1725"
         style="font-style:normal;font-variant:normal;font-weight:normal;font-stretch:normal;font-family:JackExtraCond;-inkscape-font-specification:JackExtraCond;stroke-width:0.221094"
         d="m 68.749352,121.2761 q 0,-0.69093 0.02591,-0.91547 0.095,-0.71683 0.397279,-0.71683 0.310914,0 0.397279,0.71683 0.02591,0.22454 0.02591,0.91547 v 1.32138 q 0,0.69092 -0.02591,0.92411 -0.08637,0.71683 -0.397279,0.71683 -0.302278,0 -0.397279,-0.71683 -0.02591,-0.23319 -0.02591,-0.92411 z m -1.252293,0.66501 q 0,3.27323 1.675482,3.27323 1.684118,0 1.684118,-3.27323 0,-3.27324 -1.684118,-3.27324 -1.675482,0 -1.675482,3.27324 z" />
      <path
         id="path1727"
         style="font-style:normal;font-variant:normal;font-weight:normal;font-stretch:normal;font-family:JackExtraCond;-inkscape-font-specification:JackExtraCond;stroke-width:0.221094"
         d="m 71.184845,123.26249 q 0,1.95185 1.476842,1.95185 0.742739,0 1.183201,-0.50955 0.405916,-0.46637 0.405916,-1.22639 0,-0.78592 -0.5441,-1.42502 -0.06046,-0.0691 -1.010471,-0.92411 -0.535463,-0.49228 -0.535463,-0.91546 0,-0.57001 0.431825,-0.57001 0.466371,0 0.466371,0.94137 h 1.019108 q -0.04318,-1.9173 -1.459569,-1.9173 -0.71683,0 -1.114109,0.50955 -0.37137,0.46638 -0.37137,1.20048 0,0.81183 0.5441,1.42502 l 1.001834,0.8982 q 0.5441,0.47501 0.5441,0.9241 0,0.25046 -0.138184,0.43183 -0.129548,0.18137 -0.380006,0.18137 -0.492281,0 -0.492281,-0.97593 z" />
      <path
         id="path1729"
         style="font-style:normal;font-variant:normal;font-weight:normal;font-stretch:normal;font-family:JackExtraCond;-inkscape-font-specification:JackExtraCond;stroke-width:0.221094"
         d="m 74.466713,123.26249 q 0,1.95185 1.476842,1.95185 0.742739,0 1.183201,-0.50955 0.405916,-0.46637 0.405916,-1.22639 0,-0.78592 -0.5441,-1.42502 -0.06046,-0.0691 -1.010471,-0.92411 -0.535463,-0.49228 -0.535463,-0.91546 0,-0.57001 0.431825,-0.57001 0.466371,0 0.466371,0.94137 h 1.019108 q -0.04318,-1.9173 -1.45957,-1.9173 -0.716829,0 -1.114108,0.50955 -0.37137,0.46638 -0.37137,1.20048 0,0.81183 0.5441,1.42502 l 1.001834,0.8982 q 0.5441,0.47501 0.5441,0.9241 0,0.25046 -0.138184,0.43183 -0.129548,0.18137 -0.380006,0.18137 -0.492281,0 -0.492281,-0.97593 z" />
      <path
         id="path1731"
         style="font-style:normal;font-variant:normal;font-weight:normal;font-stretch:normal;font-family:JackExtraCond;-inkscape-font-specification:JackExtraCond;stroke-width:0.221094"
         d="m 103.85674,123.51295 q 0,1.70139 1.47684,1.70139 1.4682,0 1.4682,-1.70139 v -4.72417 h -0.96728 v 4.87099 q 0,0.57865 -0.43183,0.57865 -0.39728,0 -0.39728,-0.57865 v -4.87099 h -1.14865 z" />
      <path
         id="path1733"
         style="font-style:normal;font-variant:normal;font-weight:normal;font-stretch:normal;font-family:JackExtraCond;-inkscape-font-specification:JackExtraCond;stroke-width:0.221094"
         d="m 107.4668,125.08479 h 0.97592 v -3.80869 l 0.0259,-0.009 1.26093,3.81733 h 0.85502 v -6.29601 h -0.92411 v 3.32506 l -1.07093,-3.32506 h -1.12274 v 6.29601 z" />
      <path
         id="path1735"
         style="font-style:normal;font-variant:normal;font-weight:normal;font-stretch:normal;font-family:JackExtraCond;-inkscape-font-specification:JackExtraCond;stroke-width:0.221094"
         d="m 112.42415,119.76471 q 0.39727,0.009 0.5441,0.15545 0.21591,0.25046 0.21591,2.01231 0,1.48548 -0.10364,1.80503 -0.12091,0.37137 -0.65637,0.38 z m -1.14866,5.32008 h 1.1832 q 1.21775,0 1.6323,-0.88956 0.30228,-0.64773 0.30228,-2.25412 0,-1.65821 -0.33683,-2.28868 -0.44909,-0.86365 -1.77912,-0.86365 h -1.00183 z" />
      <path
         id="path1737"
         style="font-style:normal;font-variant:normal;font-weight:normal;font-stretch:normal;font-family:JackExtraCond;-inkscape-font-specification:JackExtraCond;stroke-width:0.221094"
         d="m 115.04101,125.08479 h 2.66004 v -0.97592 h -1.51139 v -1.71003 h 1.07093 v -1.02774 h -1.07093 v -1.60639 h 1.45094 v -0.97593 h -2.59959 z" />
      <path
         id="path1739"
         style="font-style:normal;font-variant:normal;font-weight:normal;font-stretch:normal;font-family:JackExtraCond;-inkscape-font-specification:JackExtraCond;stroke-width:0.221094"
         d="m 118.15015,125.08479 h 1.14865 v -2.70322 h 0.27637 l 0.53546,2.70322 h 1.1573 l -0.67365,-2.97095 q 0.67365,-0.39728 0.67365,-1.5373 0,-1.78776 -1.82231,-1.78776 h -1.29547 z m 1.14865,-5.3719 h 0.18137 q 0.6391,0 0.6391,0.87228 0,0.87229 -0.58728,0.87229 h -0.23319 z" />
      <path
         id="path1741"
         style="font-style:normal;font-variant:normal;font-weight:normal;font-stretch:normal;font-family:JackExtraCond;-inkscape-font-specification:JackExtraCond;stroke-width:0.221094"
         d="m 126.44983,121.03427 q 0,-1.06229 -0.23318,-1.58911 -0.34546,-0.77729 -1.2523,-0.77729 -1.64093,0 -1.64093,3.27324 0,1.33002 0.22455,2.05548 0.38,1.21775 1.41638,1.21775 0.91547,0 1.26093,-0.82047 0.24183,-0.53546 0.24183,-1.60639 l -0.97593,-0.0432 q -0.009,0.60456 -0.0518,0.85501 -0.11227,0.63911 -0.43182,0.63911 -0.28501,0 -0.37137,-0.37137 -0.10364,-0.4491 -0.10364,-1.92594 0,-0.97593 0.0259,-1.26957 0.095,-1.02774 0.4491,-1.02774 0.41455,0 0.41455,1.42502 l 1.02774,-0.0345 z" />
      <path
         id="path1743"
         style="font-style:normal;font-variant:normal;font-weight:normal;font-stretch:normal;font-family:JackExtraCond;-inkscape-font-specification:JackExtraCond;stroke-width:0.221094"
         d="m 128.18576,121.2761 q 0,-0.69093 0.0259,-0.91547 0.095,-0.71683 0.39728,-0.71683 0.31092,0 0.39728,0.71683 0.0259,0.22454 0.0259,0.91547 v 1.32138 q 0,0.69092 -0.0259,0.92411 -0.0864,0.71683 -0.39728,0.71683 -0.30227,0 -0.39728,-0.71683 -0.0259,-0.23319 -0.0259,-0.92411 z m -1.25229,0.66501 q 0,3.27323 1.67548,3.27323 1.68412,0 1.68412,-3.27323 0,-3.27324 -1.68412,-3.27324 -1.67548,0 -1.67548,3.27324 z" />
      <path
         id="path1745"
         style="font-style:normal;font-variant:normal;font-weight:normal;font-stretch:normal;font-family:JackExtraCond;-inkscape-font-specification:JackExtraCond;stroke-width:0.221094"
         d="m 130.8199,125.08479 h 0.97593 v -3.80869 l 0.0259,-0.009 1.26093,3.81733 h 0.85501 v -6.29601 h -0.92411 v 3.32506 l -1.07092,-3.32506 h -1.12275 v 6.29601 z" />
      <path
         id="path1747"
         style="font-style:normal;font-variant:normal;font-weight:normal;font-stretch:normal;font-family:JackExtraCond;-inkscape-font-specification:JackExtraCond;stroke-width:0.221094"
         d="m 134.38677,123.26249 q 0,1.95185 1.47684,1.95185 0.74274,0 1.18321,-0.50955 0.40591,-0.46637 0.40591,-1.22639 0,-0.78592 -0.5441,-1.42502 -0.0604,-0.0691 -1.01047,-0.92411 -0.53546,-0.49228 -0.53546,-0.91546 0,-0.57001 0.43182,-0.57001 0.46637,0 0.46637,0.94137 H 137.28 q -0.0432,-1.9173 -1.45957,-1.9173 -0.71683,0 -1.11411,0.50955 -0.37137,0.46638 -0.37137,1.20048 0,0.81183 0.5441,1.42502 l 1.00184,0.8982 q 0.5441,0.47501 0.5441,0.9241 0,0.25046 -0.13819,0.43183 -0.12954,0.18137 -0.38,0.18137 -0.49228,0 -0.49228,-0.97593 z" />
      <path
         id="path1749"
         style="font-style:normal;font-variant:normal;font-weight:normal;font-stretch:normal;font-family:JackExtraCond;-inkscape-font-specification:JackExtraCond;stroke-width:0.221094"
         d="m 138.71366,125.08479 h 1.14866 v -5.32008 h 0.98456 v -0.97593 h -3.12641 v 0.97593 h 0.99319 z" />
      <path
         id="path1751"
         style="font-style:normal;font-variant:normal;font-weight:normal;font-stretch:normal;font-family:JackExtraCond;-inkscape-font-specification:JackExtraCond;stroke-width:0.221094"
         d="m 141.41689,125.08479 h 1.14866 v -2.70322 h 0.27637 l 0.53546,2.70322 h 1.15729 l -0.67365,-2.97095 q 0.67365,-0.39728 0.67365,-1.5373 0,-1.78776 -1.8223,-1.78776 h -1.29548 z m 1.14866,-5.3719 h 0.18137 q 0.6391,0 0.6391,0.87228 0,0.87229 -0.58729,0.87229 h -0.23318 z" />
      <path
         id="path1753"
         style="font-style:normal;font-variant:normal;font-weight:normal;font-stretch:normal;font-family:JackExtraCond;-inkscape-font-specification:JackExtraCond;stroke-width:0.221094"
         d="m 144.98377,123.51295 q 0,1.70139 1.47684,1.70139 1.46821,0 1.46821,-1.70139 v -4.72417 h -0.96729 v 4.87099 q 0,0.57865 -0.43182,0.57865 -0.39728,0 -0.39728,-0.57865 v -4.87099 h -1.14866 z" />
      <path
         id="path1755"
         style="font-style:normal;font-variant:normal;font-weight:normal;font-stretch:normal;font-family:JackExtraCond;-inkscape-font-specification:JackExtraCond;stroke-width:0.221094"
         d="m 151.59932,121.03427 q 0,-1.06229 -0.23318,-1.58911 -0.34546,-0.77729 -1.2523,-0.77729 -1.64093,0 -1.64093,3.27324 0,1.33002 0.22455,2.05548 0.38,1.21775 1.41638,1.21775 0.91547,0 1.26093,-0.82047 0.24183,-0.53546 0.24183,-1.60639 l -0.97593,-0.0432 q -0.009,0.60456 -0.0518,0.85501 -0.11227,0.63911 -0.43182,0.63911 -0.28501,0 -0.37137,-0.37137 -0.10364,-0.4491 -0.10364,-1.92594 0,-0.97593 0.0259,-1.26957 0.095,-1.02774 0.4491,-1.02774 0.41455,0 0.41455,1.42502 l 1.02774,-0.0345 z" />
      <path
         id="path1757"
         style="font-style:normal;font-variant:normal;font-weight:normal;font-stretch:normal;font-family:JackExtraCond;-inkscape-font-specification:JackExtraCond;stroke-width:0.221094"
         d="m 153.05026,125.08479 h 1.14865 v -5.32008 h 0.98456 v -0.97593 h -3.12641 v 0.97593 h 0.9932 z" />
      <path
         id="path1759"
         style="font-style:normal;font-variant:normal;font-weight:normal;font-stretch:normal;font-family:JackExtraCond;-inkscape-font-specification:JackExtraCond;stroke-width:0.221094"
         d="m 155.79667,125.08479 h 1.14865 v -6.29601 h -1.14865 z" />
      <path
         id="path1761"
         style="font-style:normal;font-variant:normal;font-weight:normal;font-stretch:normal;font-family:JackExtraCond;-inkscape-font-specification:JackExtraCond;stroke-width:0.221094"
         d="m 158.75898,121.2761 q 0,-0.69093 0.0259,-0.91547 0.095,-0.71683 0.39728,-0.71683 0.31092,0 0.39728,0.71683 0.0259,0.22454 0.0259,0.91547 v 1.32138 q 0,0.69092 -0.0259,0.92411 -0.0864,0.71683 -0.39728,0.71683 -0.30227,0 -0.39728,-0.71683 -0.0259,-0.23319 -0.0259,-0.92411 z m -1.25229,0.66501 q 0,3.27323 1.67548,3.27323 1.68412,0 1.68412,-3.27323 0,-3.27324 -1.68412,-3.27324 -1.67548,0 -1.67548,3.27324 z" />
      <path
         id="path1763"
         style="font-style:normal;font-variant:normal;font-weight:normal;font-stretch:normal;font-family:JackExtraCond;-inkscape-font-specification:JackExtraCond;stroke-width:0.221094"
         d="m 161.39312,125.08479 h 0.97593 v -3.80869 l 0.0259,-0.009 1.26093,3.81733 h 0.85502 v -6.29601 h -0.92411 v 3.32506 l -1.07092,-3.32506 h -1.12275 v 6.29601 z" />
      <path
         id="path1765"
         style="font-style:normal;font-variant:normal;font-weight:normal;font-stretch:normal;font-family:JackExtraCond;-inkscape-font-specification:JackExtraCond;stroke-width:0.221094"
         d="m 173.25969,119.76471 q 0.39728,0.009 0.5441,0.15545 0.21591,0.25046 0.21591,2.01231 0,1.48548 -0.10364,1.80503 -0.12091,0.37137 -0.65637,0.38 z m -1.14866,5.32008 h 1.1832 q 1.21775,0 1.6323,-0.88956 0.30228,-0.64773 0.30228,-2.25412 0,-1.65821 -0.33682,-2.28868 -0.4491,-0.86365 -1.77912,-0.86365 h -1.00184 z" />
      <path
         id="path1767"
         style="font-style:normal;font-variant:normal;font-weight:normal;font-stretch:normal;font-family:JackExtraCond;-inkscape-font-specification:JackExtraCond;stroke-width:0.221094"
         d="m 176.96473,121.2761 q 0,-0.69093 0.0259,-0.91547 0.095,-0.71683 0.39728,-0.71683 0.31092,0 0.39728,0.71683 0.0259,0.22454 0.0259,0.91547 v 1.32138 q 0,0.69092 -0.0259,0.92411 -0.0864,0.71683 -0.39728,0.71683 -0.30228,0 -0.39728,-0.71683 -0.0259,-0.23319 -0.0259,-0.92411 z m -1.25229,0.66501 q 0,3.27323 1.67548,3.27323 1.68412,0 1.68412,-3.27323 0,-3.27324 -1.68412,-3.27324 -1.67548,0 -1.67548,3.27324 z" />
      <path
         id="path1769"
         style="font-style:normal;font-variant:normal;font-weight:normal;font-stretch:normal;font-family:JackExtraCond;-inkscape-font-specification:JackExtraCond;stroke-width:0.221094"
         d="m 181.32618,125.08479 h 0.97593 v -3.80869 l 0.0259,-0.009 1.26093,3.81733 h 0.85502 v -6.29601 h -0.92411 v 3.32506 l -1.07092,-3.32506 h -1.12275 v 6.29601 z" />
      <path
         id="path1771"
         style="font-style:normal;font-variant:normal;font-weight:normal;font-stretch:normal;font-family:JackExtraCond;-inkscape-font-specification:JackExtraCond;stroke-width:0.221094"
         d="m 186.22307,121.2761 q 0,-0.69093 0.0259,-0.91547 0.095,-0.71683 0.39728,-0.71683 0.31092,0 0.39728,0.71683 0.0259,0.22454 0.0259,0.91547 v 1.32138 q 0,0.69092 -0.0259,0.92411 -0.0864,0.71683 -0.39728,0.71683 -0.30227,0 -0.39728,-0.71683 -0.0259,-0.23319 -0.0259,-0.92411 z m -1.2523,0.66501 q 0,3.27323 1.67548,3.27323 1.68412,0 1.68412,-3.27323 0,-3.27324 -1.68412,-3.27324 -1.67548,0 -1.67548,3.27324 z" />
      <path
         id="path1773"
         style="font-style:normal;font-variant:normal;font-weight:normal;font-stretch:normal;font-family:JackExtraCond;-inkscape-font-specification:JackExtraCond;stroke-width:0.221094"
         d="m 189.70358,125.08479 h 1.14865 v -5.32008 h 0.98456 v -0.97593 h -3.12641 v 0.97593 h 0.9932 z" />
      <path
         id="path1775"
         style="font-style:normal;font-variant:normal;font-weight:normal;font-stretch:normal;font-family:JackExtraCond;-inkscape-font-specification:JackExtraCond;stroke-width:0.221094"
         d="m 197.09642,121.03427 q 0,-1.06229 -0.23318,-1.58911 -0.34546,-0.77729 -1.2523,-0.77729 -1.64093,0 -1.64093,3.27324 0,1.33002 0.22455,2.05548 0.38,1.21775 1.41638,1.21775 0.91547,0 1.26093,-0.82047 0.24183,-0.53546 0.24183,-1.60639 l -0.97593,-0.0432 q -0.009,0.60456 -0.0518,0.85501 -0.11227,0.63911 -0.43182,0.63911 -0.28501,0 -0.37137,-0.37137 -0.10364,-0.4491 -0.10364,-1.92594 0,-0.97593 0.0259,-1.26957 0.095,-1.02774 0.4491,-1.02774 0.41455,0 0.41455,1.42502 l 1.02774,-0.0345 z" />
      <path
         id="path1777"
         style="font-style:normal;font-variant:normal;font-weight:normal;font-stretch:normal;font-family:JackExtraCond;-inkscape-font-specification:JackExtraCond;stroke-width:0.221094"
         d="m 197.74416,125.08479 h 1.14866 v -2.70322 h 0.27637 l 0.53546,2.70322 h 1.15729 l -0.67365,-2.97095 q 0.67365,-0.39728 0.67365,-1.5373 0,-1.78776 -1.8223,-1.78776 h -1.29548 z m 1.14866,-5.3719 h 0.18137 q 0.6391,0 0.6391,0.87228 0,0.87229 -0.58729,0.87229 h -0.23318 z" />
      <path
         id="path1779"
         style="font-style:normal;font-variant:normal;font-weight:normal;font-stretch:normal;font-family:JackExtraCond;-inkscape-font-specification:JackExtraCond;stroke-width:0.221094"
         d="m 202.44243,121.2761 q 0,-0.69093 0.0259,-0.91547 0.095,-0.71683 0.39728,-0.71683 0.31092,0 0.39728,0.71683 0.0259,0.22454 0.0259,0.91547 v 1.32138 q 0,0.69092 -0.0259,0.92411 -0.0864,0.71683 -0.39728,0.71683 -0.30227,0 -0.39728,-0.71683 -0.0259,-0.23319 -0.0259,-0.92411 z m -1.2523,0.66501 q 0,3.27323 1.67548,3.27323 1.68412,0 1.68412,-3.27323 0,-3.27324 -1.68412,-3.27324 -1.67548,0 -1.67548,3.27324 z" />
      <path
         id="path1781"
         style="font-style:normal;font-variant:normal;font-weight:normal;font-stretch:normal;font-family:JackExtraCond;-inkscape-font-specification:JackExtraCond;stroke-width:0.221094"
         d="m 204.87792,123.26249 q 0,1.95185 1.47684,1.95185 0.74274,0 1.18321,-0.50955 0.40591,-0.46637 0.40591,-1.22639 0,-0.78592 -0.5441,-1.42502 -0.0605,-0.0691 -1.01047,-0.92411 -0.53546,-0.49228 -0.53546,-0.91546 0,-0.57001 0.43182,-0.57001 0.46637,0 0.46637,0.94137 h 1.01911 q -0.0432,-1.9173 -1.45957,-1.9173 -0.71683,0 -1.11411,0.50955 -0.37137,0.46638 -0.37137,1.20048 0,0.81183 0.5441,1.42502 l 1.00184,0.8982 q 0.5441,0.47501 0.5441,0.9241 0,0.25046 -0.13819,0.43183 -0.12954,0.18137 -0.38,0.18137 -0.49228,0 -0.49228,-0.97593 z" />
      <path
         id="path1783"
         style="font-style:normal;font-variant:normal;font-weight:normal;font-stretch:normal;font-family:JackExtraCond;-inkscape-font-specification:JackExtraCond;stroke-width:0.221094"
         d="m 208.15978,123.26249 q 0,1.95185 1.47684,1.95185 0.74274,0 1.18321,-0.50955 0.40591,-0.46637 0.40591,-1.22639 0,-0.78592 -0.5441,-1.42502 -0.0604,-0.0691 -1.01047,-0.92411 -0.53546,-0.49228 -0.53546,-0.91546 0,-0.57001 0.43182,-0.57001 0.46637,0 0.46637,0.94137 h 1.01911 q -0.0432,-1.9173 -1.45957,-1.9173 -0.71683,0 -1.11411,0.50955 -0.37137,0.46638 -0.37137,1.20048 0,0.81183 0.5441,1.42502 l 1.00184,0.8982 q 0.5441,0.47501 0.5441,0.9241 0,0.25046 -0.13819,0.43183 -0.12954,0.18137 -0.38,0.18137 -0.49228,0 -0.49228,-0.97593 z" />
    </g>
  </g>
</svg>
