<?xml version="1.0" encoding="UTF-8" standalone="no"?>
<svg
   xmlns:dc="http://purl.org/dc/elements/1.1/"
   xmlns:cc="http://creativecommons.org/ns#"
   xmlns:rdf="http://www.w3.org/1999/02/22-rdf-syntax-ns#"
   xmlns:svg="http://www.w3.org/2000/svg"
   xmlns="http://www.w3.org/2000/svg"
   xmlns:sodipodi="http://sodipodi.sourceforge.net/DTD/sodipodi-0.dtd"
   xmlns:inkscape="http://www.inkscape.org/namespaces/inkscape"
   sodipodi:docname="littleman.svg"
   inkscape:version="1.0 (4035a4fb49, 2020-05-01)"
   id="svg8"
   version="1.1"
   viewBox="0 0 16.33802 18.05781"
   height="18.05781mm"
   width="16.33802mm">
  <defs
     id="defs2" />
  <sodipodi:namedview
     inkscape:window-maximized="1"
     inkscape:window-y="-8"
     inkscape:window-x="-8"
     inkscape:window-height="1017"
     inkscape:window-width="1920"
     showgrid="false"
     inkscape:document-rotation="0"
     inkscape:current-layer="layer1"
     inkscape:document-units="mm"
     inkscape:cy="101.66995"
     inkscape:cx="-164.24756"
     inkscape:zoom="0.98994949"
     inkscape:pageshadow="2"
     inkscape:pageopacity="0.0"
     borderopacity="1.0"
     bordercolor="#666666"
     pagecolor="#ffffff"
     id="base" />
  <metadata
     id="metadata5">
    <rdf:RDF>
      <cc:Work
         rdf:about="">
        <dc:format>image/svg+xml</dc:format>
        <dc:type
           rdf:resource="http://purl.org/dc/dcmitype/StillImage" />
        <dc:title></dc:title>
      </cc:Work>
    </rdf:RDF>
  </metadata>
  <g
     transform="translate(-60.24468,-99.450261)"
     id="layer1"
     inkscape:groupmode="layer"
     inkscape:label="Layer 1">
    <path
       style="stroke-width:0.264583"
       id="path833"
       stroke="none"
       fill-rule="evenodd"
       fill="#000000"
       d="m 76.582701,103.35287 -6.548437,-3.902609 -9.789584,3.598329 2.711979,12.89844 6.905626,1.56104 5.06677,-2.61937 1.653646,-11.53583" />
    <g
       transform="matrix(0.26458333,0,0,0.26458333,68.415771,108.06356)"
       id="g868">
      <path
         d="m 26.05,-16.25 -15.85,-11.8 -36.55,10.15 6.9,43.65 25,5.7 16.2,-6.9 4.3,-40.8"
         fill="#f16e6e"
         fill-rule="evenodd"
         stroke="none"
         id="path864" />
      <path
         d="m -12.5,-0.8 -1.2,0.75 -0.3,0.4 -0.3,0.7 V 0.7 l 0.05,-0.4 0.05,-0.3 0.2,-0.25 1.2,-1.2 q 0.75,-0.6 1.85,-0.9 L -8.6,-3 l 2.7,-0.45 2.95,-0.2 2.95,0.1 q 6.6,0.35 10.75,2.4 L 12.5,-0.1 13.65,1.1 13.9,1.6 14.05,2.05 14.1,2.4 13.95,2.1 13.75,1.7 13.35,1.3 12.1,0.55 10.3,-0.15 8.1,-0.7 5.5,-1.15 -0.1,-1.7 l -2.85,-0.1 -7.65,0.5 -1.9,0.5"
         fill="#000000"
         fill-rule="evenodd"
         stroke="none"
         id="path866" />
    </g>
    <g
       transform="matrix(0.26458333,0,0,0.26458333,68.645491,107.92546)"
       id="g889">
      <path
         d="m 4.5,-15.95 q 3.05,-1.75 6.1,-0.4 3.45,1.5 3.4,6.1 0,3.2 -3.65,3.55 Q 6.8,-6.4 4.6,-8.65 1.75,-11.6 2.85,-14.1 l 1.65,-1.85"
         fill="#ffffff"
         fill-rule="evenodd"
         stroke="none"
         id="path881" />
      <path
         d="m -5,-16.2 1.5,2.1 q 0.95,2.9 -1.6,6.5 -1.25,1.85 -5.55,1.3 -4.5,-0.65 -4.55,-3.85 0,-4.95 3.7,-6.55 3.3,-1.45 6.5,0.5"
         fill="#ffffff"
         fill-rule="evenodd"
         stroke="none"
         id="path883" />
      <path
         d="m 3.4,-17.4 q 1.95,-1.3 3.8,-0.45 1.8,0.8 2.3,2.7 0.5,2.05 0.05,3.55 Q 9,-9.75 7.2,-9.45 3.9,-8.8 2.05,-12 0.15,-15.25 3.4,-17.4"
         fill="#000000"
         fill-rule="evenodd"
         stroke="none"
         id="path885" />
      <path
         d="m -13.6,-9.55 q -3.35,-2.05 -1.35,-5.45 2,-3.3 5.4,-2.8 1.9,0.25 2.4,2.1 0.5,1.5 -0.1,3.6 -0.45,2 -2.35,2.8 -2,1 -4,-0.25"
         fill="#000000"
         fill-rule="evenodd"
         stroke="none"
         id="path887" />
    </g>
  </g>
</svg>
